{
  "accessors": [
    {
      "bufferView": 2,
      "componentType": 5126,
      "count": 10162,
      "max": [
        1.2480390071868896,
        1.0551520586013794,
        1.4039640426635742
      ],
      "min": [
        -1.2480390071868896,
        -1.2492740154266357,
        -1.1477359533309937
      ],
      "type": "VEC3"
    },
    {
      "bufferView": 2,
      "byteOffset": 121944,
      "componentType": 5126,
      "count": 10162,
      "max": [
        0.9999571442604065,
        0.9999794960021973,
        0.9999619126319885
      ],
      "min": [
        -0.9999571442604065,
        -0.9999874830245972,
        -0.999996542930603
      ],
      "type": "VEC3"
    },
    {
      "bufferView": 3,
      "componentType": 5126,
      "count": 10162,
      "max": [
        0.9998787641525269,
        0.9999966025352478,
        0.9995508193969727,
        1.0
      ],
      "min": [
        -0.9998787641525269,
        -0.9991621375083923,
        -0.9999875426292419,
        -1.0
      ],
      "type": "VEC4"
    },
    {
      "bufferView": 1,
      "componentType": 5126,
      "count": 10162,
      "max": [
        0.9958869814872742,
        0.995989978313446
      ],
      "min": [
        0.007890000008046627,
        0.008825000375509262
      ],
      "type": "VEC2"
    },
    {
      "bufferView": 0,
      "componentType": 5125,
      "count": 53184,
      "type": "SCALAR"
    }
  ],
  "asset": {
    "extras": {
      "author": "z4g0 (https://sketchfab.com/z4g0)",
      "license": "CC-BY-4.0 (http://creativecommons.org/licenses/by/4.0/)",
      "source": "https://sketchfab.com/3d-models/cacodemon-c8e36476d01742f69bd213a62a028024",
      "title": "Cacodemon"
    },
    "generator": "Sketchfab-12.68.0",
    "version": "2.0"
  },
  "bufferViews": [
    {
      "buffer": 0,
      "byteLength": 212736,
      "name": "floatBufferViews",
      "target": 34963
    },
    {
      "buffer": 0,
      "byteLength": 81296,
      "byteOffset": 212736,
      "byteStride": 8,
      "name": "floatBufferViews",
      "target": 34962
    },
    {
      "buffer": 0,
      "byteLength": 243888,
      "byteOffset": 294032,
      "byteStride": 12,
      "name": "floatBufferViews",
      "target": 34962
    },
    {
      "buffer": 0,
      "byteLength": 162592,
      "byteOffset": 537920,
      "byteStride": 16,
      "name": "floatBufferViews",
      "target": 34962
    }
  ],
  "buffers": [
    {
      "byteLength": 700512,
      "uri": "scene.bin"
    }
  ],
  "images": [
    {
      "uri": "textures2/Material__caco_AO_png_baseColor.png"
    },
    {
      "uri": "textures2/Material__caco_AO_png_metallicRoughness.png"
    },
    {
      "uri": "textures2/Material__caco_AO_png_emissive.png"
    },
    {
      "uri": "textures2/Material__caco_AO_png_normal.png"
    }
  ],
  "materials": [
    {
      "doubleSided": true,
      "emissiveFactor": [
        1.0,
        1.0,
        1.0
      ],
      "emissiveTexture": {
        "index": 2
      },
      "name": "Material__caco_AO_png",
      "normalTexture": {
        "index": 3
      },
      "occlusionTexture": {
        "index": 1,
        "strength": 0.4259469696969697
      },
      "pbrMetallicRoughness": {
        "baseColorTexture": {
          "index": 0
        },
        "metallicFactor": 0.78,
        "metallicRoughnessTexture": {
          "index": 1
        },
        "roughnessFactor": 0.75
      }
    }
  ],
  "meshes": [
    {
      "name": "Object_0",
      "primitives": [
        {
          "attributes": {
            "NORMAL": 1,
            "POSITION": 0,
            "TANGENT": 2,
            "TEXCOORD_0": 3
          },
          "indices": 4,
          "material": 0,
          "mode": 4
        }
      ]
    }
  ],
  "nodes": [
    {
      "children": [
        1
      ],
      "matrix": [
        1.0,
        0.0,
        0.0,
        0.0,
        0.0,
        2.220446049250313e-16,
        -1.0,
        0.0,
        0.0,
        1.0,
        2.220446049250313e-16,
        0.0,
        0.0,
        0.0,
        0.0,
        1.0
      ],
      "name": "Sketchfab_model"
    },
    {
      "children": [
        2
      ],
      "matrix": [
        1.0,
        0.0,
        0.0,
        0.0,
        0.0,
        0.0,
        1.0,
        0.0,
        0.0,
        -1.0,
        0.0,
        0.0,
        0.0,
        0.0,
        0.0,
        1.0
      ],
      "name": "caco2_lpUV_t.fbx"
    },
    {
      "children": [
        3
      ],
      "name": "RootNode"
    },
    {
      "children": [
        4
      ],
      "name": "Cube"
    },
    {
      "mesh": 0,
      "name": "Object_4"
    }
  ],
  "samplers": [
    {
      "magFilter": 9729,
      "minFilter": 9987,
      "wrapS": 10497,
      "wrapT": 10497
    }
  ],
  "scene": 0,
  "scenes": [
    {
      "name": "Sketchfab_Scene",
      "nodes": [
        0
      ]
    }
  ],
  "textures": [
    {
      "sampler": 0,
      "source": 0
    },
    {
      "sampler": 0,
      "source": 1
    },
    {
      "sampler": 0,
      "source": 2
    },
    {
      "sampler": 0,
      "source": 3
    }
  ]
}
