{
  "accessors": [
    {
      "bufferView": 1,
      "componentType": 5126,
      "count": 52853,
      "max": [
        140.5,
        136.5,
        114.5
      ],
      "min": [
        8.5,
        3.5,
        1.5
      ],
      "type": "VEC3"
    },
    {
      "bufferView": 1,
      "byteOffset": 634236,
      "componentType": 5126,
      "count": 52853,
      "max": [
        1.0,
        1.0,
        1.0
      ],
      "min": [
        -1.0,
        -1.0,
        -1.0
      ],
      "type": "VEC3"
    },
    {
      "bufferView": 2,
      "componentType": 5126,
      "count": 52853,
      "max": [
        0.0784313753247261,
        0.003921568859368563,
        0.003921568859368563,
        1.0
      ],
      "min": [
        0.0784313753247261,
        0.003921568859368563,
        0.003921568859368563,
        1.0
      ],
      "type": "VEC4"
    },
    {
      "bufferView": 0,
      "componentType": 5125,
      "count": 111000,
      "type": "SCALAR"
    },
    {
      "bufferView": 1,
      "byteOffset": 1268472,
      "componentType": 5126,
      "count": 7301,
      "max": [
        147.5,
        130.5,
        144.5
      ],
      "min": [
        0.5,
        2.5,
        3.5
      ],
      "type": "VEC3"
    },
    {
      "bufferView": 1,
      "byteOffset": 1356084,
      "componentType": 5126,
      "count": 7301,
      "max": [
        1.0,
        1.0,
        1.0
      ],
      "min": [
        -1.0,
        -1.0,
        -1.0
      ],
      "type": "VEC3"
    },
    {
      "bufferView": 2,
      "byteOffset": 845648,
      "componentType": 5126,
      "count": 7301,
      "max": [
        0.3019607961177826,
        0.2862745225429535,
        0.2666666805744171,
        1.0
      ],
      "min": [
        0.3019607961177826,
        0.2862745225429535,
        0.2666666805744171,
        1.0
      ],
      "type": "VEC4"
    },
    {
      "bufferView": 0,
      "byteOffset": 444000,
      "componentType": 5125,
      "count": 12066,
      "type": "SCALAR"
    },
    {
      "bufferView": 1,
      "byteOffset": 1443696,
      "componentType": 5126,
      "count": 3121,
      "max": [
        110.5,
        31.5,
        60.5
      ],
      "min": [
        37.5,
        16.5,
        37.5
      ],
      "type": "VEC3"
    },
    {
      "bufferView": 1,
      "byteOffset": 1481148,
      "componentType": 5126,
      "count": 3121,
      "max": [
        1.0,
        1.0,
        1.0
      ],
      "min": [
        -1.0,
        -1.0,
        -1.0
      ],
      "type": "VEC3"
    },
    {
      "bufferView": 2,
      "byteOffset": 962464,
      "componentType": 5126,
      "count": 3121,
      "max": [
        0.019607843831181526,
        0.003921568859368563,
        0.21568627655506134,
        1.0
      ],
      "min": [
        0.019607843831181526,
        0.003921568859368563,
        0.21568627655506134,
        1.0
      ],
      "type": "VEC4"
    },
    {
      "bufferView": 0,
      "byteOffset": 492264,
      "componentType": 5125,
      "count": 5748,
      "type": "SCALAR"
    },
    {
      "bufferView": 1,
      "byteOffset": 1518600,
      "componentType": 5126,
      "count": 7930,
      "max": [
        146.5,
        133.5,
        142.5
      ],
      "min": [
        1.5,
        2.5,
        4.5
      ],
      "type": "VEC3"
    },
    {
      "bufferView": 1,
      "byteOffset": 1613760,
      "componentType": 5126,
      "count": 7930,
      "max": [
        1.0,
        1.0,
        1.0
      ],
      "min": [
        -1.0,
        -1.0,
        -1.0
      ],
      "type": "VEC3"
    },
    {
      "bufferView": 2,
      "byteOffset": 1012400,
      "componentType": 5126,
      "count": 7930,
      "max": [
        0.26274511218070984,
        0.23529411852359772,
        0.23137255012989044,
        1.0
      ],
      "min": [
        0.26274511218070984,
        0.23529411852359772,
        0.23137255012989044,
        1.0
      ],
      "type": "VEC4"
    },
    {
      "bufferView": 0,
      "byteOffset": 515256,
      "componentType": 5125,
      "count": 13578,
      "type": "SCALAR"
    },
    {
      "bufferView": 1,
      "byteOffset": 1708920,
      "componentType": 5126,
      "count": 4262,
      "max": [
        146.5,
        133.5,
        138.5
      ],
      "min": [
        4.5,
        2.5,
        4.5
      ],
      "type": "VEC3"
    },
    {
      "bufferView": 1,
      "byteOffset": 1760064,
      "componentType": 5126,
      "count": 4262,
      "max": [
        1.0,
        1.0,
        1.0
      ],
      "min": [
        -1.0,
        -1.0,
        -1.0
      ],
      "type": "VEC3"
    },
    {
      "bufferView": 2,
      "byteOffset": 1139280,
      "componentType": 5126,
      "count": 4262,
      "max": [
        0.21176470816135406,
        0.23529411852359772,
        0.18039216101169586,
        1.0
      ],
      "min": [
        0.19607843458652496,
        0.2078431397676468,
        0.14509804546833038,
        1.0
      ],
      "type": "VEC4"
    },
    {
      "bufferView": 0,
      "byteOffset": 569568,
      "componentType": 5125,
      "count": 6864,
      "type": "SCALAR"
    },
    {
      "bufferView": 1,
      "byteOffset": 1811208,
      "componentType": 5126,
      "count": 12392,
      "max": [
        142.5,
        137.5,
        122.5
      ],
      "min": [
        6.5,
        0.5,
        3.5
      ],
      "type": "VEC3"
    },
    {
      "bufferView": 1,
      "byteOffset": 1959912,
      "componentType": 5126,
      "count": 12392,
      "max": [
        1.0,
        1.0,
        1.0
      ],
      "min": [
        -1.0,
        -1.0,
        -1.0
      ],
      "type": "VEC3"
    },
    {
      "bufferView": 2,
      "byteOffset": 1207472,
      "componentType": 5126,
      "count": 12392,
      "max": [
        0.18039216101169586,
        0.08627451211214066,
        0.07450980693101883,
        1.0
      ],
      "min": [
        0.18039216101169586,
        0.08627451211214066,
        0.07450980693101883,
        1.0
      ],
      "type": "VEC4"
    },
    {
      "bufferView": 0,
      "byteOffset": 597024,
      "componentType": 5125,
      "count": 20688,
      "type": "SCALAR"
    },
    {
      "bufferView": 1,
      "byteOffset": 2108616,
      "componentType": 5126,
      "count": 6189,
      "max": [
        144.5,
        134.5,
        139.5
      ],
      "min": [
        5.5,
        2.5,
        4.5
      ],
      "type": "VEC3"
    },
    {
      "bufferView": 1,
      "byteOffset": 2182884,
      "componentType": 5126,
      "count": 6189,
      "max": [
        1.0,
        1.0,
        1.0
      ],
      "min": [
        -1.0,
        -1.0,
        -1.0
      ],
      "type": "VEC3"
    },
    {
      "bufferView": 2,
      "byteOffset": 1405744,
      "componentType": 5126,
      "count": 6189,
      "max": [
        0.20000000298023224,
        0.1921568661928177,
        0.1764705926179886,
        1.0
      ],
      "min": [
        0.18431372940540314,
        0.1725490242242813,
        0.1568627506494522,
        1.0
      ],
      "type": "VEC4"
    },
    {
      "bufferView": 0,
      "byteOffset": 679776,
      "componentType": 5125,
      "count": 9690,
      "type": "SCALAR"
    },
    {
      "bufferView": 1,
      "byteOffset": 2257152,
      "componentType": 5126,
      "count": 6780,
      "max": [
        142.5,
        137.5,
        136.5
      ],
      "min": [
        7.5,
        3.5,
        2.5
      ],
      "type": "VEC3"
    },
    {
      "bufferView": 1,
      "byteOffset": 2338512,
      "componentType": 5126,
      "count": 6780,
      "max": [
        1.0,
        1.0,
        1.0
      ],
      "min": [
        -1.0,
        -1.0,
        -1.0
      ],
      "type": "VEC3"
    },
    {
      "bufferView": 2,
      "byteOffset": 1504768,
      "componentType": 5126,
      "count": 6780,
      "max": [
        0.1725490242242813,
        0.13333334028720856,
        0.12156862765550613,
        1.0
      ],
      "min": [
        0.1725490242242813,
        0.13333334028720856,
        0.12156862765550613,
        1.0
      ],
      "type": "VEC4"
    },
    {
      "bufferView": 0,
      "byteOffset": 718536,
      "componentType": 5125,
      "count": 11328,
      "type": "SCALAR"
    },
    {
      "bufferView": 1,
      "byteOffset": 2419872,
      "componentType": 5126,
      "count": 61867,
      "max": [
        143.5,
        137.5,
        121.5
      ],
      "min": [
        6.5,
        4.5,
        1.5
      ],
      "type": "VEC3"
    },
    {
      "bufferView": 1,
      "byteOffset": 3162276,
      "componentType": 5126,
      "count": 61867,
      "max": [
        1.0,
        1.0,
        1.0
      ],
      "min": [
        -1.0,
        -1.0,
        -1.0
      ],
      "type": "VEC3"
    },
    {
      "bufferView": 2,
      "byteOffset": 1613248,
      "componentType": 5126,
      "count": 61867,
      "max": [
        0.10980392247438431,
        0.019607843831181526,
        0.019607843831181526,
        1.0
      ],
      "min": [
        0.10980392247438431,
        0.019607843831181526,
        0.019607843831181526,
        1.0
      ],
      "type": "VEC4"
    },
    {
      "bufferView": 0,
      "byteOffset": 763848,
      "componentType": 5125,
      "count": 119976,
      "type": "SCALAR"
    },
    {
      "bufferView": 1,
      "byteOffset": 3904680,
      "componentType": 5126,
      "count": 65532,
      "max": [
        145.5,
        137.5,
        123.5
      ],
      "min": [
        3.5,
        5.5,
        0.5
      ],
      "type": "VEC3"
    },
    {
      "bufferView": 1,
      "byteOffset": 4691064,
      "componentType": 5126,
      "count": 65532,
      "max": [
        1.0,
        1.0,
        1.0
      ],
      "min": [
        -1.0,
        -1.0,
        -1.0
      ],
      "type": "VEC3"
    },
    {
      "bufferView": 2,
      "byteOffset": 2603120,
      "componentType": 5126,
      "count": 65532,
      "max": [
        0.23137255012989044,
        0.0235294122248888,
        0.019607843831181526,
        1.0
      ],
      "min": [
        0.23137255012989044,
        0.0235294122248888,
        0.019607843831181526,
        1.0
      ],
      "type": "VEC4"
    },
    {
      "bufferView": 0,
      "byteOffset": 1243752,
      "componentType": 5125,
      "count": 127953,
      "type": "SCALAR"
    },
    {
      "bufferView": 1,
      "byteOffset": 5477448,
      "componentType": 5126,
      "count": 42890,
      "max": [
        120.5,
        138.5,
        123.5
      ],
      "min": [
        62.5,
        0.5,
        0.5
      ],
      "type": "VEC3"
    },
    {
      "bufferView": 1,
      "byteOffset": 5992128,
      "componentType": 5126,
      "count": 42890,
      "max": [
        1.0,
        1.0,
        1.0
      ],
      "min": [
        -1.0,
        -1.0,
        -1.0
      ],
      "type": "VEC3"
    },
    {
      "bufferView": 2,
      "byteOffset": 3651632,
      "componentType": 5126,
      "count": 42890,
      "max": [
        0.23137255012989044,
        0.0235294122248888,
        0.019607843831181526,
        1.0
      ],
      "min": [
        0.23137255012989044,
        0.0235294122248888,
        0.019607843831181526,
        1.0
      ],
      "type": "VEC4"
    },
    {
      "bufferView": 0,
      "byteOffset": 1755564,
      "componentType": 5125,
      "count": 88941,
      "type": "SCALAR"
    },
    {
      "bufferView": 1,
      "byteOffset": 6506808,
      "componentType": 5126,
      "count": 4905,
      "max": [
        148.5,
        131.5,
        148.5
      ],
      "min": [
        0.5,
        2.5,
        5.5
      ],
      "type": "VEC3"
    },
    {
      "bufferView": 1,
      "byteOffset": 6565668,
      "componentType": 5126,
      "count": 4905,
      "max": [
        1.0,
        1.0,
        1.0
      ],
      "min": [
        -1.0,
        -1.0,
        -1.0
      ],
      "type": "VEC3"
    },
    {
      "bufferView": 2,
      "byteOffset": 4337872,
      "componentType": 5126,
      "count": 4905,
      "max": [
        0.3843137323856354,
        0.34117648005485535,
        0.34117648005485535,
        1.0
      ],
      "min": [
        0.3843137323856354,
        0.34117648005485535,
        0.34117648005485535,
        1.0
      ],
      "type": "VEC4"
    },
    {
      "bufferView": 0,
      "byteOffset": 2111328,
      "componentType": 5125,
      "count": 7962,
      "type": "SCALAR"
    },
    {
      "bufferView": 1,
      "byteOffset": 6624528,
      "componentType": 5126,
      "count": 12298,
      "max": [
        144.5,
        137.5,
        125.5
      ],
      "min": [
        3.5,
        4.5,
        -0.5
      ],
      "type": "VEC3"
    },
    {
      "bufferView": 1,
      "byteOffset": 6772104,
      "componentType": 5126,
      "count": 12298,
      "max": [
        1.0,
        1.0,
        1.0
      ],
      "min": [
        -1.0,
        -1.0,
        -1.0
      ],
      "type": "VEC3"
    },
    {
      "bufferView": 2,
      "byteOffset": 4416352,
      "componentType": 5126,
      "count": 12298,
      "max": [
        0.4745098054409027,
        0.03529411926865578,
        0.0235294122248888,
        1.0
      ],
      "min": [
        0.4745098054409027,
        0.03529411926865578,
        0.0235294122248888,
        1.0
      ],
      "type": "VEC4"
    },
    {
      "bufferView": 0,
      "byteOffset": 2143176,
      "componentType": 5125,
      "count": 20346,
      "type": "SCALAR"
    },
    {
      "bufferView": 1,
      "byteOffset": 6919680,
      "componentType": 5126,
      "count": 733,
      "max": [
        149.5,
        131.5,
        144.5
      ],
      "min": [
        2.5,
        6.5,
        12.5
      ],
      "type": "VEC3"
    },
    {
      "bufferView": 1,
      "byteOffset": 6928476,
      "componentType": 5126,
      "count": 733,
      "max": [
        1.0,
        1.0,
        1.0
      ],
      "min": [
        -1.0,
        -1.0,
        -1.0
      ],
      "type": "VEC3"
    },
    {
      "bufferView": 2,
      "byteOffset": 4613120,
      "componentType": 5126,
      "count": 733,
      "max": [
        0.6470588445663452,
        0.5921568870544434,
        0.5529412031173706,
        1.0
      ],
      "min": [
        0.32549020648002625,
        0.48627451062202454,
        0.24705882370471954,
        1.0
      ],
      "type": "VEC4"
    },
    {
      "bufferView": 0,
      "byteOffset": 2224560,
      "componentType": 5125,
      "count": 1116,
      "type": "SCALAR"
    },
    {
      "bufferView": 1,
      "byteOffset": 6937272,
      "componentType": 5126,
      "count": 11893,
      "max": [
        144.5,
        137.5,
        122.5
      ],
      "min": [
        3.5,
        13.5,
        -0.5
      ],
      "type": "VEC3"
    },
    {
      "bufferView": 1,
      "byteOffset": 7079988,
      "componentType": 5126,
      "count": 11893,
      "max": [
        1.0,
        1.0,
        1.0
      ],
      "min": [
        -1.0,
        -1.0,
        -1.0
      ],
      "type": "VEC3"
    },
    {
      "bufferView": 2,
      "byteOffset": 4624848,
      "componentType": 5126,
      "count": 11893,
      "max": [
        0.4313725531101227,
        0.0235294122248888,
        0.0117647061124444,
        1.0
      ],
      "min": [
        0.4313725531101227,
        0.0235294122248888,
        0.0117647061124444,
        1.0
      ],
      "type": "VEC4"
    },
    {
      "bufferView": 0,
      "byteOffset": 2229024,
      "componentType": 5125,
      "count": 20790,
      "type": "SCALAR"
    },
    {
      "bufferView": 1,
      "byteOffset": 7222704,
      "componentType": 5126,
      "count": 588,
      "max": [
        149.5,
        133.5,
        148.5
      ],
      "min": [
        13.5,
        8.5,
        39.5
      ],
      "type": "VEC3"
    },
    {
      "bufferView": 1,
      "byteOffset": 7229760,
      "componentType": 5126,
      "count": 588,
      "max": [
        1.0,
        1.0,
        1.0
      ],
      "min": [
        -1.0,
        -1.0,
        -1.0
      ],
      "type": "VEC3"
    },
    {
      "bufferView": 2,
      "byteOffset": 4815136,
      "componentType": 5126,
      "count": 588,
      "max": [
        0.5764706134796143,
        0.4588235318660736,
        0.42352941632270813,
        1.0
      ],
      "min": [
        0.5764706134796143,
        0.4588235318660736,
        0.42352941632270813,
        1.0
      ],
      "type": "VEC4"
    },
    {
      "bufferView": 0,
      "byteOffset": 2312184,
      "componentType": 5125,
      "count": 894,
      "type": "SCALAR"
    },
    {
      "bufferView": 1,
      "byteOffset": 7236816,
      "componentType": 5126,
      "count": 17390,
      "max": [
        145.5,
        137.5,
        126.5
      ],
      "min": [
        4.5,
        2.5,
        0.5
      ],
      "type": "VEC3"
    },
    {
      "bufferView": 1,
      "byteOffset": 7445496,
      "componentType": 5126,
      "count": 17390,
      "max": [
        1.0,
        1.0,
        1.0
      ],
      "min": [
        -1.0,
        -1.0,
        -1.0
      ],
      "type": "VEC3"
    },
    {
      "bufferView": 2,
      "byteOffset": 4824544,
      "componentType": 5126,
      "count": 17390,
      "max": [
        0.4313725531101227,
        0.04313725605607033,
        0.0313725508749485,
        1.0
      ],
      "min": [
        0.4313725531101227,
        0.04313725605607033,
        0.0313725508749485,
        1.0
      ],
      "type": "VEC4"
    },
    {
      "bufferView": 0,
      "byteOffset": 2315760,
      "componentType": 5125,
      "count": 28368,
      "type": "SCALAR"
    },
    {
      "bufferView": 1,
      "byteOffset": 7654176,
      "componentType": 5126,
      "count": 5353,
      "max": [
        146.5,
        136.5,
        146.5
      ],
      "min": [
        -0.5,
        6.5,
        9.5
      ],
      "type": "VEC3"
    },
    {
      "bufferView": 1,
      "byteOffset": 7718412,
      "componentType": 5126,
      "count": 5353,
      "max": [
        1.0,
        1.0,
        1.0
      ],
      "min": [
        -1.0,
        -1.0,
        -1.0
      ],
      "type": "VEC3"
    },
    {
      "bufferView": 2,
      "byteOffset": 5102784,
      "componentType": 5126,
      "count": 5353,
      "max": [
        0.5686274766921997,
        0.5372549295425415,
        0.5176470875740051,
        1.0
      ],
      "min": [
        0.007843137718737125,
        0.003921568859368563,
        0.10980392247438431,
        1.0
      ],
      "type": "VEC4"
    },
    {
      "bufferView": 0,
      "byteOffset": 2429232,
      "componentType": 5125,
      "count": 9426,
      "type": "SCALAR"
    },
    {
      "bufferView": 1,
      "byteOffset": 7782648,
      "componentType": 5126,
      "count": 53188,
      "max": [
        145.5,
        137.5,
        125.5
      ],
      "min": [
        4.5,
        2.5,
        -0.5
      ],
      "type": "VEC3"
    },
    {
      "bufferView": 1,
      "byteOffset": 8420904,
      "componentType": 5126,
      "count": 53188,
      "max": [
        1.0,
        1.0,
        1.0
      ],
      "min": [
        -1.0,
        -1.0,
        -1.0
      ],
      "type": "VEC3"
    },
    {
      "bufferView": 2,
      "byteOffset": 5188432,
      "componentType": 5126,
      "count": 53188,
      "max": [
        0.3176470696926117,
        0.019607843831181526,
        0.0117647061124444,
        1.0
      ],
      "min": [
        0.3176470696926117,
        0.019607843831181526,
        0.0117647061124444,
        1.0
      ],
      "type": "VEC4"
    },
    {
      "bufferView": 0,
      "byteOffset": 2466936,
      "componentType": 5125,
      "count": 100986,
      "type": "SCALAR"
    },
    {
      "bufferView": 1,
      "byteOffset": 9059160,
      "componentType": 5126,
      "count": 1439,
      "max": [
        147.5,
        136.5,
        149.5
      ],
      "min": [
        6.5,
        -0.5,
        10.5
      ],
      "type": "VEC3"
    },
    {
      "bufferView": 1,
      "byteOffset": 9076428,
      "componentType": 5126,
      "count": 1439,
      "max": [
        1.0,
        1.0,
        1.0
      ],
      "min": [
        -1.0,
        -1.0,
        -1.0
      ],
      "type": "VEC3"
    },
    {
      "bufferView": 2,
      "byteOffset": 6039440,
      "componentType": 5126,
      "count": 1439,
      "max": [
        0.6784313917160034,
        0.5607843399047852,
        0.4588235318660736,
        1.0
      ],
      "min": [
        0.21568627655506134,
        0.3607843220233917,
        0.14901961386203766,
        1.0
      ],
      "type": "VEC4"
    },
    {
      "bufferView": 0,
      "byteOffset": 2870880,
      "componentType": 5125,
      "count": 2232,
      "type": "SCALAR"
    },
    {
      "bufferView": 1,
      "byteOffset": 9093696,
      "componentType": 5126,
      "count": 18184,
      "max": [
        145.5,
        137.5,
        135.5
      ],
      "min": [
        3.5,
        2.5,
        8.5
      ],
      "type": "VEC3"
    },
    {
      "bufferView": 1,
      "byteOffset": 9311904,
      "componentType": 5126,
      "count": 18184,
      "max": [
        1.0,
        1.0,
        1.0
      ],
      "min": [
        -1.0,
        -1.0,
        -1.0
      ],
      "type": "VEC3"
    },
    {
      "bufferView": 2,
      "byteOffset": 6062464,
      "componentType": 5126,
      "count": 18184,
      "max": [
        0.5529412031173706,
        0.0941176488995552,
        0.062745101749897,
        1.0
      ],
      "min": [
        0.5529412031173706,
        0.0941176488995552,
        0.062745101749897,
        1.0
      ],
      "type": "VEC4"
    },
    {
      "bufferView": 0,
      "byteOffset": 2879808,
      "componentType": 5125,
      "count": 29940,
      "type": "SCALAR"
    },
    {
      "bufferView": 1,
      "byteOffset": 9530112,
      "componentType": 5126,
      "count": 1036,
      "max": [
        141.5,
        133.5,
        125.5
      ],
      "min": [
        6.5,
        5.5,
        13.5
      ],
      "type": "VEC3"
    },
    {
      "bufferView": 1,
      "byteOffset": 9542544,
      "componentType": 5126,
      "count": 1036,
      "max": [
        1.0,
        1.0,
        1.0
      ],
      "min": [
        -1.0,
        -1.0,
        -1.0
      ],
      "type": "VEC3"
    },
    {
      "bufferView": 2,
      "byteOffset": 6353408,
      "componentType": 5126,
      "count": 1036,
      "max": [
        0.6509804129600525,
        0.32549020648002625,
        0.30980393290519714,
        1.0
      ],
      "min": [
        0.6509804129600525,
        0.32549020648002625,
        0.30980393290519714,
        1.0
      ],
      "type": "VEC4"
    },
    {
      "bufferView": 0,
      "byteOffset": 2999568,
      "componentType": 5125,
      "count": 1584,
      "type": "SCALAR"
    },
    {
      "bufferView": 1,
      "byteOffset": 9554976,
      "componentType": 5126,
      "count": 5924,
      "max": [
        115.5,
        93.5,
        111.5
      ],
      "min": [
        12.5,
        17.5,
        38.5
      ],
      "type": "VEC3"
    },
    {
      "bufferView": 1,
      "byteOffset": 9626064,
      "componentType": 5126,
      "count": 5924,
      "max": [
        1.0,
        1.0,
        1.0
      ],
      "min": [
        -1.0,
        -1.0,
        -1.0
      ],
      "type": "VEC3"
    },
    {
      "bufferView": 2,
      "byteOffset": 6369984,
      "componentType": 5126,
      "count": 5924,
      "max": [
        0.6666666865348816,
        0.3921568691730499,
        0.5137255191802979,
        1.0
      ],
      "min": [
        0.003921568859368563,
        0.003921568859368563,
        0.3843137323856354,
        1.0
      ],
      "type": "VEC4"
    },
    {
      "bufferView": 0,
      "byteOffset": 3005904,
      "componentType": 5125,
      "count": 13560,
      "type": "SCALAR"
    },
    {
      "bufferView": 1,
      "byteOffset": 9697152,
      "componentType": 5126,
      "count": 1738,
      "max": [
        143.5,
        137.5,
        140.5
      ],
      "min": [
        2.5,
        -0.5,
        15.5
      ],
      "type": "VEC3"
    },
    {
      "bufferView": 1,
      "byteOffset": 9718008,
      "componentType": 5126,
      "count": 1738,
      "max": [
        1.0,
        1.0,
        1.0
      ],
      "min": [
        -1.0,
        -1.0,
        -1.0
      ],
      "type": "VEC3"
    },
    {
      "bufferView": 2,
      "byteOffset": 6464768,
      "componentType": 5126,
      "count": 1738,
      "max": [
        0.6549019813537598,
        0.45490196347236633,
        0.6823529601097107,
        1.0
      ],
      "min": [
        0.6117647290229797,
        0.24313725531101227,
        0.3137255012989044,
        1.0
      ],
      "type": "VEC4"
    },
    {
      "bufferView": 0,
      "byteOffset": 3060144,
      "componentType": 5125,
      "count": 2664,
      "type": "SCALAR"
    },
    {
      "bufferView": 1,
      "byteOffset": 9738864,
      "componentType": 5126,
      "count": 11506,
      "max": [
        137.5,
        135.5,
        106.5
      ],
      "min": [
        12.5,
        3.5,
        2.5
      ],
      "type": "VEC3"
    },
    {
      "bufferView": 1,
      "byteOffset": 9876936,
      "componentType": 5126,
      "count": 11506,
      "max": [
        1.0,
        1.0,
        1.0
      ],
      "min": [
        -1.0,
        -1.0,
        -1.0
      ],
      "type": "VEC3"
    },
    {
      "bufferView": 2,
      "byteOffset": 6492576,
      "componentType": 5126,
      "count": 11506,
      "max": [
        0.05098039284348488,
        0.0235294122248888,
        0.05882352963089943,
        1.0
      ],
      "min": [
        0.05098039284348488,
        0.0235294122248888,
        0.05882352963089943,
        1.0
      ],
      "type": "VEC4"
    },
    {
      "bufferView": 0,
      "byteOffset": 3070800,
      "componentType": 5125,
      "count": 22662,
      "type": "SCALAR"
    },
    {
      "bufferView": 1,
      "byteOffset": 10015008,
      "componentType": 5126,
      "count": 716,
      "max": [
        148.5,
        132.5,
        133.5
      ],
      "min": [
        2.5,
        -0.5,
        11.5
      ],
      "type": "VEC3"
    },
    {
      "bufferView": 1,
      "byteOffset": 10023600,
      "componentType": 5126,
      "count": 716,
      "max": [
        1.0,
        1.0,
        1.0
      ],
      "min": [
        -1.0,
        -1.0,
        -1.0
      ],
      "type": "VEC3"
    },
    {
      "bufferView": 2,
      "byteOffset": 6676672,
      "componentType": 5126,
      "count": 716,
      "max": [
        0.6784313917160034,
        0.49803921580314636,
        0.501960813999176,
        1.0
      ],
      "min": [
        0.6352941393852234,
        0.33725491166114807,
        0.34117648005485535,
        1.0
      ],
      "type": "VEC4"
    },
    {
      "bufferView": 0,
      "byteOffset": 3161448,
      "componentType": 5125,
      "count": 1092,
      "type": "SCALAR"
    },
    {
      "bufferView": 1,
      "byteOffset": 10032192,
      "componentType": 5126,
      "count": 14405,
      "max": [
        145.5,
        137.5,
        130.5
      ],
      "min": [
        4.5,
        -0.5,
        8.5
      ],
      "type": "VEC3"
    },
    {
      "bufferView": 1,
      "byteOffset": 10205052,
      "componentType": 5126,
      "count": 14405,
      "max": [
        1.0,
        1.0,
        1.0
      ],
      "min": [
        -1.0,
        -1.0,
        -1.0
      ],
      "type": "VEC3"
    },
    {
      "bufferView": 2,
      "byteOffset": 6688128,
      "componentType": 5126,
      "count": 14405,
      "max": [
        0.5568627715110779,
        0.19607843458652496,
        0.13725490868091583,
        1.0
      ],
      "min": [
        0.5568627715110779,
        0.19607843458652496,
        0.13725490868091583,
        1.0
      ],
      "type": "VEC4"
    },
    {
      "bufferView": 0,
      "byteOffset": 3165816,
      "componentType": 5125,
      "count": 23796,
      "type": "SCALAR"
    },
    {
      "bufferView": 1,
      "byteOffset": 10377912,
      "componentType": 5126,
      "count": 402,
      "max": [
        123.5,
        124.5,
        87.5
      ],
      "min": [
        25.5,
        116.5,
        72.5
      ],
      "type": "VEC3"
    },
    {
      "bufferView": 1,
      "byteOffset": 10382736,
      "componentType": 5126,
      "count": 402,
      "max": [
        1.0,
        1.0,
        1.0
      ],
      "min": [
        -1.0,
        -1.0,
        -1.0
      ],
      "type": "VEC3"
    },
    {
      "bufferView": 2,
      "byteOffset": 6918608,
      "componentType": 5126,
      "count": 402,
      "max": [
        0.4901960790157318,
        0.26274511218070984,
        0.47058823704719543,
        1.0
      ],
      "min": [
        0.4901960790157318,
        0.26274511218070984,
        0.47058823704719543,
        1.0
      ],
      "type": "VEC4"
    },
    {
      "bufferView": 0,
      "byteOffset": 3261000,
      "componentType": 5125,
      "count": 654,
      "type": "SCALAR"
    },
    {
      "bufferView": 1,
      "byteOffset": 10387560,
      "componentType": 5126,
      "count": 9494,
      "max": [
        148.5,
        138.5,
        149.5
      ],
      "min": [
        0.5,
        2.5,
        4.5
      ],
      "type": "VEC3"
    },
    {
      "bufferView": 1,
      "byteOffset": 10501488,
      "componentType": 5126,
      "count": 9494,
      "max": [
        1.0,
        1.0,
        1.0
      ],
      "min": [
        -1.0,
        -1.0,
        -1.0
      ],
      "type": "VEC3"
    },
    {
      "bufferView": 2,
      "byteOffset": 6925040,
      "componentType": 5126,
      "count": 9494,
      "max": [
        0.6509804129600525,
        0.5882353186607361,
        0.5372549295425415,
        1.0
      ],
      "min": [
        0.45098039507865906,
        0.04313725605607033,
        0.027450980618596077,
        1.0
      ],
      "type": "VEC4"
    },
    {
      "bufferView": 0,
      "byteOffset": 3263616,
      "componentType": 5125,
      "count": 14838,
      "type": "SCALAR"
    },
    {
      "bufferView": 1,
      "byteOffset": 10615416,
      "componentType": 5126,
      "count": 8454,
      "max": [
        148.5,
        137.5,
        148.5
      ],
      "min": [
        3.5,
        -0.5,
        4.5
      ],
      "type": "VEC3"
    },
    {
      "bufferView": 1,
      "byteOffset": 10716864,
      "componentType": 5126,
      "count": 8454,
      "max": [
        1.0,
        1.0,
        1.0
      ],
      "min": [
        -1.0,
        -1.0,
        -1.0
      ],
      "type": "VEC3"
    },
    {
      "bufferView": 2,
      "byteOffset": 7076944,
      "componentType": 5126,
      "count": 8454,
      "max": [
        0.7803921699523926,
        0.6509804129600525,
        0.7333333492279053,
        1.0
      ],
      "min": [
        0.21568627655506134,
        0.05098039284348488,
        0.027450980618596077,
        1.0
      ],
      "type": "VEC4"
    },
    {
      "bufferView": 0,
      "byteOffset": 3322968,
      "componentType": 5125,
      "count": 13020,
      "type": "SCALAR"
    },
    {
      "bufferView": 1,
      "byteOffset": 10818312,
      "componentType": 5126,
      "count": 8706,
      "max": [
        143.5,
        137.5,
        146.5
      ],
      "min": [
        3.5,
        -0.5,
        9.5
      ],
      "type": "VEC3"
    },
    {
      "bufferView": 1,
      "byteOffset": 10922784,
      "componentType": 5126,
      "count": 8706,
      "max": [
        1.0,
        1.0,
        1.0
      ],
      "min": [
        -1.0,
        -1.0,
        -1.0
      ],
      "type": "VEC3"
    },
    {
      "bufferView": 2,
      "byteOffset": 7212208,
      "componentType": 5126,
      "count": 8706,
      "max": [
        0.7490196228027344,
        0.6000000238418579,
        0.5137255191802979,
        1.0
      ],
      "min": [
        0.6509804129600525,
        0.250980406999588,
        0.2235294133424759,
        1.0
      ],
      "type": "VEC4"
    },
    {
      "bufferView": 0,
      "byteOffset": 3375048,
      "componentType": 5125,
      "count": 13752,
      "type": "SCALAR"
    },
    {
      "bufferView": 1,
      "byteOffset": 11027256,
      "componentType": 5126,
      "count": 8700,
      "max": [
        148.5,
        136.5,
        150.5
      ],
      "min": [
        0.5,
        -0.5,
        6.5
      ],
      "type": "VEC3"
    },
    {
      "bufferView": 1,
      "byteOffset": 11131656,
      "componentType": 5126,
      "count": 8700,
      "max": [
        1.0,
        1.0,
        1.0
      ],
      "min": [
        -1.0,
        -1.0,
        -1.0
      ],
      "type": "VEC3"
    },
    {
      "bufferView": 2,
      "byteOffset": 7351504,
      "componentType": 5126,
      "count": 8700,
      "max": [
        0.7882353067398071,
        0.7450980544090271,
        0.7254902124404907,
        1.0
      ],
      "min": [
        0.43529412150382996,
        0.16862745583057404,
        0.22745098173618317,
        1.0
      ],
      "type": "VEC4"
    },
    {
      "bufferView": 0,
      "byteOffset": 3430056,
      "componentType": 5125,
      "count": 13860,
      "type": "SCALAR"
    },
    {
      "bufferView": 1,
      "byteOffset": 11236056,
      "componentType": 5126,
      "count": 33957,
      "max": [
        144.5,
        138.5,
        126.5
      ],
      "min": [
        3.5,
        0.5,
        -0.5
      ],
      "type": "VEC3"
    },
    {
      "bufferView": 1,
      "byteOffset": 11643540,
      "componentType": 5126,
      "count": 33957,
      "max": [
        1.0,
        1.0,
        1.0
      ],
      "min": [
        -1.0,
        -1.0,
        -1.0
      ],
      "type": "VEC3"
    },
    {
      "bufferView": 2,
      "byteOffset": 7490704,
      "componentType": 5126,
      "count": 33957,
      "max": [
        0.32156863808631897,
        0.03921568766236305,
        0.0313725508749485,
        1.0
      ],
      "min": [
        0.32156863808631897,
        0.03921568766236305,
        0.0313725508749485,
        1.0
      ],
      "type": "VEC4"
    },
    {
      "bufferView": 0,
      "byteOffset": 3485496,
      "componentType": 5125,
      "count": 57144,
      "type": "SCALAR"
    },
    {
      "bufferView": 1,
      "byteOffset": 12051024,
      "componentType": 5126,
      "count": 8392,
      "max": [
        148.5,
        136.5,
        150.5
      ],
      "min": [
        0.5,
        3.5,
        4.5
      ],
      "type": "VEC3"
    },
    {
      "bufferView": 1,
      "byteOffset": 12151728,
      "componentType": 5126,
      "count": 8392,
      "max": [
        1.0,
        1.0,
        1.0
      ],
      "min": [
        -1.0,
        -1.0,
        -1.0
      ],
      "type": "VEC3"
    },
    {
      "bufferView": 2,
      "byteOffset": 8034016,
      "componentType": 5126,
      "count": 8392,
      "max": [
        0.42352941632270813,
        0.4000000059604645,
        0.4000000059604645,
        1.0
      ],
      "min": [
        0.3529411852359772,
        0.19607843458652496,
        0.16078431904315948,
        1.0
      ],
      "type": "VEC4"
    },
    {
      "bufferView": 0,
      "byteOffset": 3714072,
      "componentType": 5125,
      "count": 13176,
      "type": "SCALAR"
    },
    {
      "bufferView": 1,
      "byteOffset": 12252432,
      "componentType": 5126,
      "count": 8184,
      "max": [
        147.5,
        135.5,
        149.5
      ],
      "min": [
        1.5,
        2.5,
        3.5
      ],
      "type": "VEC3"
    },
    {
      "bufferView": 1,
      "byteOffset": 12350640,
      "componentType": 5126,
      "count": 8184,
      "max": [
        1.0,
        1.0,
        1.0
      ],
      "min": [
        -1.0,
        -1.0,
        -1.0
      ],
      "type": "VEC3"
    },
    {
      "bufferView": 2,
      "byteOffset": 8168288,
      "componentType": 5126,
      "count": 8184,
      "max": [
        0.6549019813537598,
        0.6235294342041016,
        0.6117647290229797,
        1.0
      ],
      "min": [
        0.13725490868091583,
        0.21176470816135406,
        0.09803921729326248,
        1.0
      ],
      "type": "VEC4"
    },
    {
      "bufferView": 0,
      "byteOffset": 3766776,
      "componentType": 5125,
      "count": 13416,
      "type": "SCALAR"
    },
    {
      "bufferView": 1,
      "byteOffset": 12448848,
      "componentType": 5126,
      "count": 8690,
      "max": [
        144.5,
        137.5,
        150.5
      ],
      "min": [
        4.5,
        -0.5,
        58.5
      ],
      "type": "VEC3"
    },
    {
      "bufferView": 1,
      "byteOffset": 12553128,
      "componentType": 5126,
      "count": 8690,
      "max": [
        1.0,
        1.0,
        1.0
      ],
      "min": [
        -1.0,
        -1.0,
        -1.0
      ],
      "type": "VEC3"
    },
    {
      "bufferView": 2,
      "byteOffset": 8299232,
      "componentType": 5126,
      "count": 8690,
      "max": [
        1.0,
        0.772549033164978,
        0.3803921639919281,
        1.0
      ],
      "min": [
        0.9647058844566345,
        0.4000000059604645,
        0.33725491166114807,
        1.0
      ],
      "type": "VEC4"
    },
    {
      "bufferView": 0,
      "byteOffset": 3820440,
      "componentType": 5125,
      "count": 13674,
      "type": "SCALAR"
    },
    {
      "bufferView": 1,
      "byteOffset": 12657408,
      "componentType": 5126,
      "count": 8820,
      "max": [
        145.5,
        136.5,
        138.5
      ],
      "min": [
        3.5,
        -0.5,
        58.5
      ],
      "type": "VEC3"
    },
    {
      "bufferView": 1,
      "byteOffset": 12763248,
      "componentType": 5126,
      "count": 8820,
      "max": [
        1.0,
        1.0,
        1.0
      ],
      "min": [
        -1.0,
        -1.0,
        -1.0
      ],
      "type": "VEC3"
    },
    {
      "bufferView": 2,
      "byteOffset": 8438272,
      "componentType": 5126,
      "count": 8820,
      "max": [
        1.0,
        0.501960813999176,
        0.2705882489681244,
        1.0
      ],
      "min": [
        1.0,
        0.501960813999176,
        0.2705882489681244,
        1.0
      ],
      "type": "VEC4"
    },
    {
      "bufferView": 0,
      "byteOffset": 3875136,
      "componentType": 5125,
      "count": 14796,
      "type": "SCALAR"
    },
    {
      "bufferView": 1,
      "byteOffset": 12869088,
      "componentType": 5126,
      "count": 7119,
      "max": [
        143.5,
        137.5,
        137.5
      ],
      "min": [
        4.5,
        3.5,
        57.5
      ],
      "type": "VEC3"
    },
    {
      "bufferView": 1,
      "byteOffset": 12954516,
      "componentType": 5126,
      "count": 7119,
      "max": [
        1.0,
        1.0,
        1.0
      ],
      "min": [
        -1.0,
        -1.0,
        -1.0
      ],
      "type": "VEC3"
    },
    {
      "bufferView": 2,
      "byteOffset": 8579392,
      "componentType": 5126,
      "count": 7119,
      "max": [
        1.0,
        0.3490196168422699,
        0.2705882489681244,
        1.0
      ],
      "min": [
        1.0,
        0.3490196168422699,
        0.2705882489681244,
        1.0
      ],
      "type": "VEC4"
    },
    {
      "bufferView": 0,
      "byteOffset": 3934320,
      "componentType": 5125,
      "count": 11424,
      "type": "SCALAR"
    },
    {
      "bufferView": 1,
      "byteOffset": 13039944,
      "componentType": 5126,
      "count": 11706,
      "max": [
        144.5,
        137.5,
        137.5
      ],
      "min": [
        5.5,
        2.5,
        58.5
      ],
      "type": "VEC3"
    },
    {
      "bufferView": 1,
      "byteOffset": 13180416,
      "componentType": 5126,
      "count": 11706,
      "max": [
        1.0,
        1.0,
        1.0
      ],
      "min": [
        -1.0,
        -1.0,
        -1.0
      ],
      "type": "VEC3"
    },
    {
      "bufferView": 2,
      "byteOffset": 8693296,
      "componentType": 5126,
      "count": 11706,
      "max": [
        0.9764705896377563,
        0.29019609093666077,
        0.21960784494876862,
        1.0
      ],
      "min": [
        0.9764705896377563,
        0.29019609093666077,
        0.21960784494876862,
        1.0
      ],
      "type": "VEC4"
    },
    {
      "bufferView": 0,
      "byteOffset": 3980016,
      "componentType": 5125,
      "count": 19200,
      "type": "SCALAR"
    },
    {
      "bufferView": 1,
      "byteOffset": 13320888,
      "componentType": 5126,
      "count": 8218,
      "max": [
        144.5,
        136.5,
        137.5
      ],
      "min": [
        3.5,
        3.5,
        60.5
      ],
      "type": "VEC3"
    },
    {
      "bufferView": 1,
      "byteOffset": 13419504,
      "componentType": 5126,
      "count": 8218,
      "max": [
        1.0,
        1.0,
        1.0
      ],
      "min": [
        -1.0,
        -1.0,
        -1.0
      ],
      "type": "VEC3"
    },
    {
      "bufferView": 2,
      "byteOffset": 8880592,
      "componentType": 5126,
      "count": 8218,
      "max": [
        0.9529411792755127,
        0.2823529541492462,
        0.1725490242242813,
        1.0
      ],
      "min": [
        0.9529411792755127,
        0.2823529541492462,
        0.1725490242242813,
        1.0
      ],
      "type": "VEC4"
    },
    {
      "bufferView": 0,
      "byteOffset": 4056816,
      "componentType": 5125,
      "count": 13218,
      "type": "SCALAR"
    },
    {
      "bufferView": 1,
      "byteOffset": 13518120,
      "componentType": 5126,
      "count": 7752,
      "max": [
        144.5,
        137.5,
        138.5
      ],
      "min": [
        5.5,
        0.5,
        62.5
      ],
      "type": "VEC3"
    },
    {
      "bufferView": 1,
      "byteOffset": 13611144,
      "componentType": 5126,
      "count": 7752,
      "max": [
        1.0,
        1.0,
        1.0
      ],
      "min": [
        -1.0,
        -1.0,
        -1.0
      ],
      "type": "VEC3"
    },
    {
      "bufferView": 2,
      "byteOffset": 9012080,
      "componentType": 5126,
      "count": 7752,
      "max": [
        1.0,
        0.5921568870544434,
        0.2823529541492462,
        1.0
      ],
      "min": [
        1.0,
        0.5921568870544434,
        0.2823529541492462,
        1.0
      ],
      "type": "VEC4"
    },
    {
      "bufferView": 0,
      "byteOffset": 4109688,
      "componentType": 5125,
      "count": 14202,
      "type": "SCALAR"
    },
    {
      "bufferView": 1,
      "byteOffset": 13704168,
      "componentType": 5126,
      "count": 19482,
      "max": [
        145.5,
        137.5,
        137.5
      ],
      "min": [
        3.5,
        2.5,
        49.5
      ],
      "type": "VEC3"
    },
    {
      "bufferView": 1,
      "byteOffset": 13937952,
      "componentType": 5126,
      "count": 19482,
      "max": [
        1.0,
        1.0,
        1.0
      ],
      "min": [
        -1.0,
        -1.0,
        -1.0
      ],
      "type": "VEC3"
    },
    {
      "bufferView": 2,
      "byteOffset": 9136112,
      "componentType": 5126,
      "count": 19482,
      "max": [
        0.9372549057006836,
        0.23137255012989044,
        0.16078431904315948,
        1.0
      ],
      "min": [
        0.9372549057006836,
        0.23137255012989044,
        0.16078431904315948,
        1.0
      ],
      "type": "VEC4"
    },
    {
      "bufferView": 0,
      "byteOffset": 4166496,
      "componentType": 5125,
      "count": 33360,
      "type": "SCALAR"
    },
    {
      "bufferView": 1,
      "byteOffset": 14171736,
      "componentType": 5126,
      "count": 5426,
      "max": [
        143.5,
        137.5,
        137.5
      ],
      "min": [
        6.5,
        4.5,
        58.5
      ],
      "type": "VEC3"
    },
    {
      "bufferView": 1,
      "byteOffset": 14236848,
      "componentType": 5126,
      "count": 5426,
      "max": [
        1.0,
        1.0,
        1.0
      ],
      "min": [
        -1.0,
        -1.0,
        -1.0
      ],
      "type": "VEC3"
    },
    {
      "bufferView": 2,
      "byteOffset": 9447824,
      "componentType": 5126,
      "count": 5426,
      "max": [
        1.0,
        0.3686274588108063,
        0.3137255012989044,
        1.0
      ],
      "min": [
        1.0,
        0.3686274588108063,
        0.3137255012989044,
        1.0
      ],
      "type": "VEC4"
    },
    {
      "bufferView": 0,
      "byteOffset": 4299936,
      "componentType": 5125,
      "count": 8538,
      "type": "SCALAR"
    },
    {
      "bufferView": 1,
      "byteOffset": 14301960,
      "componentType": 5126,
      "count": 4741,
      "max": [
        144.5,
        135.5,
        137.5
      ],
      "min": [
        6.5,
        6.5,
        72.5
      ],
      "type": "VEC3"
    },
    {
      "bufferView": 1,
      "byteOffset": 14358852,
      "componentType": 5126,
      "count": 4741,
      "max": [
        1.0,
        1.0,
        1.0
      ],
      "min": [
        -1.0,
        -1.0,
        -1.0
      ],
      "type": "VEC3"
    },
    {
      "bufferView": 2,
      "byteOffset": 9534640,
      "componentType": 5126,
      "count": 4741,
      "max": [
        1.0,
        0.6823529601097107,
        0.3333333432674408,
        1.0
      ],
      "min": [
        1.0,
        0.6823529601097107,
        0.3333333432674408,
        1.0
      ],
      "type": "VEC4"
    },
    {
      "bufferView": 0,
      "byteOffset": 4334088,
      "componentType": 5125,
      "count": 8544,
      "type": "SCALAR"
    },
    {
      "bufferView": 1,
      "byteOffset": 14415744,
      "componentType": 5126,
      "count": 10370,
      "max": [
        142.5,
        136.5,
        137.5
      ],
      "min": [
        5.5,
        -0.5,
        60.5
      ],
      "type": "VEC3"
    },
    {
      "bufferView": 1,
      "byteOffset": 14540184,
      "componentType": 5126,
      "count": 10370,
      "max": [
        1.0,
        1.0,
        1.0
      ],
      "min": [
        -1.0,
        -1.0,
        -1.0
      ],
      "type": "VEC3"
    },
    {
      "bufferView": 2,
      "byteOffset": 9610496,
      "componentType": 5126,
      "count": 10370,
      "max": [
        1.0,
        0.4627451002597809,
        0.2666666805744171,
        1.0
      ],
      "min": [
        1.0,
        0.4627451002597809,
        0.2666666805744171,
        1.0
      ],
      "type": "VEC4"
    },
    {
      "bufferView": 0,
      "byteOffset": 4368264,
      "componentType": 5125,
      "count": 17316,
      "type": "SCALAR"
    },
    {
      "bufferView": 1,
      "byteOffset": 14664624,
      "componentType": 5126,
      "count": 19912,
      "max": [
        145.5,
        138.5,
        136.5
      ],
      "min": [
        3.5,
        2.5,
        25.5
      ],
      "type": "VEC3"
    },
    {
      "bufferView": 1,
      "byteOffset": 14903568,
      "componentType": 5126,
      "count": 19912,
      "max": [
        1.0,
        1.0,
        1.0
      ],
      "min": [
        -1.0,
        -1.0,
        -1.0
      ],
      "type": "VEC3"
    },
    {
      "bufferView": 2,
      "byteOffset": 9776416,
      "componentType": 5126,
      "count": 19912,
      "max": [
        0.8745098114013672,
        0.14509804546833038,
        0.09803921729326248,
        1.0
      ],
      "min": [
        0.8745098114013672,
        0.14509804546833038,
        0.09803921729326248,
        1.0
      ],
      "type": "VEC4"
    },
    {
      "bufferView": 0,
      "byteOffset": 4437528,
      "componentType": 5125,
      "count": 33558,
      "type": "SCALAR"
    },
    {
      "bufferView": 1,
      "byteOffset": 15142512,
      "componentType": 5126,
      "count": 9263,
      "max": [
        147.5,
        135.5,
        152.5
      ],
      "min": [
        3.5,
        -0.5,
        63.5
      ],
      "type": "VEC3"
    },
    {
      "bufferView": 1,
      "byteOffset": 15253668,
      "componentType": 5126,
      "count": 9263,
      "max": [
        1.0,
        1.0,
        1.0
      ],
      "min": [
        -1.0,
        -1.0,
        -1.0
      ],
      "type": "VEC3"
    },
    {
      "bufferView": 2,
      "byteOffset": 10095008,
      "componentType": 5126,
      "count": 9263,
      "max": [
        0.9960784316062927,
        1.0,
        0.4470588266849518,
        1.0
      ],
      "min": [
        0.5764706134796143,
        0.4117647111415863,
        0.3333333432674408,
        1.0
      ],
      "type": "VEC4"
    },
    {
      "bufferView": 0,
      "byteOffset": 4571760,
      "componentType": 5125,
      "count": 14490,
      "type": "SCALAR"
    },
    {
      "bufferView": 1,
      "byteOffset": 15364824,
      "componentType": 5126,
      "count": 8558,
      "max": [
        149.5,
        137.5,
        151.5
      ],
      "min": [
        -0.5,
        1.5,
        12.5
      ],
      "type": "VEC3"
    },
    {
      "bufferView": 1,
      "byteOffset": 15467520,
      "componentType": 5126,
      "count": 8558,
      "max": [
        1.0,
        1.0,
        1.0
      ],
      "min": [
        -1.0,
        -1.0,
        -1.0
      ],
      "type": "VEC3"
    },
    {
      "bufferView": 2,
      "byteOffset": 10243216,
      "componentType": 5126,
      "count": 8558,
      "max": [
        1.0,
        0.8196078538894653,
        0.7607843279838562,
        1.0
      ],
      "min": [
        0.6509804129600525,
        0.38823530077934265,
        0.34117648005485535,
        1.0
      ],
      "type": "VEC4"
    },
    {
      "bufferView": 0,
      "byteOffset": 4629720,
      "componentType": 5125,
      "count": 13206,
      "type": "SCALAR"
    },
    {
      "bufferView": 1,
      "byteOffset": 15570216,
      "componentType": 5126,
      "count": 9224,
      "max": [
        148.5,
        138.5,
        151.5
      ],
      "min": [
        1.5,
        2.5,
        8.5
      ],
      "type": "VEC3"
    },
    {
      "bufferView": 1,
      "byteOffset": 15680904,
      "componentType": 5126,
      "count": 9224,
      "max": [
        1.0,
        1.0,
        1.0
      ],
      "min": [
        -1.0,
        -1.0,
        -1.0
      ],
      "type": "VEC3"
    },
    {
      "bufferView": 2,
      "byteOffset": 10380144,
      "componentType": 5126,
      "count": 9224,
      "max": [
        0.95686274766922,
        0.800000011920929,
        0.7764706015586853,
        1.0
      ],
      "min": [
        0.4274509847164154,
        0.05098039284348488,
        0.027450980618596077,
        1.0
      ],
      "type": "VEC4"
    },
    {
      "bufferView": 0,
      "byteOffset": 4682544,
      "componentType": 5125,
      "count": 14268,
      "type": "SCALAR"
    },
    {
      "bufferView": 1,
      "byteOffset": 15791592,
      "componentType": 5126,
      "count": 8187,
      "max": [
        147.5,
        137.5,
        151.5
      ],
      "min": [
        1.5,
        -0.5,
        29.5
      ],
      "type": "VEC3"
    },
    {
      "bufferView": 1,
      "byteOffset": 15889836,
      "componentType": 5126,
      "count": 8187,
      "max": [
        1.0,
        1.0,
        1.0
      ],
      "min": [
        -1.0,
        -1.0,
        -1.0
      ],
      "type": "VEC3"
    },
    {
      "bufferView": 2,
      "byteOffset": 10527728,
      "componentType": 5126,
      "count": 8187,
      "max": [
        1.0,
        0.9725490212440491,
        0.7372549176216125,
        1.0
      ],
      "min": [
        0.8705882430076599,
        0.3921568691730499,
        0.3176470696926117,
        1.0
      ],
      "type": "VEC4"
    },
    {
      "bufferView": 0,
      "byteOffset": 4739616,
      "componentType": 5125,
      "count": 12678,
      "type": "SCALAR"
    },
    {
      "bufferView": 1,
      "byteOffset": 15988080,
      "componentType": 5126,
      "count": 8630,
      "max": [
        146.5,
        137.5,
        150.5
      ],
      "min": [
        4.5,
        -0.5,
        25.5
      ],
      "type": "VEC3"
    },
    {
      "bufferView": 1,
      "byteOffset": 16091640,
      "componentType": 5126,
      "count": 8630,
      "max": [
        1.0,
        1.0,
        1.0
      ],
      "min": [
        -1.0,
        -1.0,
        -1.0
      ],
      "type": "VEC3"
    },
    {
      "bufferView": 2,
      "byteOffset": 10658720,
      "componentType": 5126,
      "count": 8630,
      "max": [
        0.929411768913269,
        0.5921568870544434,
        0.4901960790157318,
        1.0
      ],
      "min": [
        0.8274509906768799,
        0.2549019753932953,
        0.21960784494876862,
        1.0
      ],
      "type": "VEC4"
    },
    {
      "bufferView": 0,
      "byteOffset": 4790328,
      "componentType": 5125,
      "count": 13440,
      "type": "SCALAR"
    },
    {
      "bufferView": 1,
      "byteOffset": 16195200,
      "componentType": 5126,
      "count": 6607,
      "max": [
        147.5,
        136.5,
        151.5
      ],
      "min": [
        1.5,
        -0.5,
        24.5
      ],
      "type": "VEC3"
    },
    {
      "bufferView": 1,
      "byteOffset": 16274484,
      "componentType": 5126,
      "count": 6607,
      "max": [
        1.0,
        1.0,
        1.0
      ],
      "min": [
        -1.0,
        -1.0,
        -1.0
      ],
      "type": "VEC3"
    },
    {
      "bufferView": 2,
      "byteOffset": 10796800,
      "componentType": 5126,
      "count": 6607,
      "max": [
        1.0,
        0.9882352948188782,
        0.8627451062202454,
        1.0
      ],
      "min": [
        0.250980406999588,
        0.3294117748737335,
        0.16862745583057404,
        1.0
      ],
      "type": "VEC4"
    },
    {
      "bufferView": 0,
      "byteOffset": 4844088,
      "componentType": 5125,
      "count": 10290,
      "type": "SCALAR"
    },
    {
      "bufferView": 1,
      "byteOffset": 16353768,
      "componentType": 5126,
      "count": 11013,
      "max": [
        145.5,
        137.5,
        136.5
      ],
      "min": [
        3.5,
        2.5,
        25.5
      ],
      "type": "VEC3"
    },
    {
      "bufferView": 1,
      "byteOffset": 16485924,
      "componentType": 5126,
      "count": 11013,
      "max": [
        1.0,
        1.0,
        1.0
      ],
      "min": [
        -1.0,
        -1.0,
        -1.0
      ],
      "type": "VEC3"
    },
    {
      "bufferView": 2,
      "byteOffset": 10902512,
      "componentType": 5126,
      "count": 11013,
      "max": [
        0.6901960968971252,
        0.054901961237192154,
        0.027450980618596077,
        1.0
      ],
      "min": [
        0.6901960968971252,
        0.054901961237192154,
        0.027450980618596077,
        1.0
      ],
      "type": "VEC4"
    },
    {
      "bufferView": 0,
      "byteOffset": 4885248,
      "componentType": 5125,
      "count": 17370,
      "type": "SCALAR"
    },
    {
      "bufferView": 1,
      "byteOffset": 16618080,
      "componentType": 5126,
      "count": 15749,
      "max": [
        143.5,
        137.5,
        124.5
      ],
      "min": [
        5.5,
        0.5,
        6.5
      ],
      "type": "VEC3"
    },
    {
      "bufferView": 1,
      "byteOffset": 16807068,
      "componentType": 5126,
      "count": 15749,
      "max": [
        1.0,
        1.0,
        1.0
      ],
      "min": [
        -1.0,
        -1.0,
        -1.0
      ],
      "type": "VEC3"
    },
    {
      "bufferView": 2,
      "byteOffset": 11078720,
      "componentType": 5126,
      "count": 15749,
      "max": [
        0.364705890417099,
        0.13333334028720856,
        0.10196078568696976,
        1.0
      ],
      "min": [
        0.364705890417099,
        0.13333334028720856,
        0.10196078568696976,
        1.0
      ],
      "type": "VEC4"
    },
    {
      "bufferView": 0,
      "byteOffset": 4954728,
      "componentType": 5125,
      "count": 25980,
      "type": "SCALAR"
    },
    {
      "bufferView": 1,
      "byteOffset": 16996056,
      "componentType": 5126,
      "count": 23778,
      "max": [
        145.5,
        135.5,
        123.5
      ],
      "min": [
        4.5,
        2.5,
        -0.5
      ],
      "type": "VEC3"
    },
    {
      "bufferView": 1,
      "byteOffset": 17281392,
      "componentType": 5126,
      "count": 23778,
      "max": [
        1.0,
        1.0,
        1.0
      ],
      "min": [
        -1.0,
        -1.0,
        -1.0
      ],
      "type": "VEC3"
    },
    {
      "bufferView": 2,
      "byteOffset": 11330704,
      "componentType": 5126,
      "count": 23778,
      "max": [
        0.3843137323856354,
        0.019607843831181526,
        0.0117647061124444,
        1.0
      ],
      "min": [
        0.3843137323856354,
        0.019607843831181526,
        0.0117647061124444,
        1.0
      ],
      "type": "VEC4"
    },
    {
      "bufferView": 0,
      "byteOffset": 5058648,
      "componentType": 5125,
      "count": 44208,
      "type": "SCALAR"
    },
    {
      "bufferView": 1,
      "byteOffset": 17566728,
      "componentType": 5126,
      "count": 107,
      "max": [
        80.5,
        10.5,
        86.5
      ],
      "min": [
        65.5,
        6.5,
        77.5
      ],
      "type": "VEC3"
    },
    {
      "bufferView": 1,
      "byteOffset": 17568012,
      "componentType": 5126,
      "count": 107,
      "max": [
        1.0,
        1.0,
        1.0
      ],
      "min": [
        0.0,
        -1.0,
        -1.0
      ],
      "type": "VEC3"
    },
    {
      "bufferView": 2,
      "byteOffset": 11711152,
      "componentType": 5126,
      "count": 107,
      "max": [
        0.29019609093666077,
        0.4470588266849518,
        0.1764705926179886,
        1.0
      ],
      "min": [
        0.29019609093666077,
        0.4470588266849518,
        0.1764705926179886,
        1.0
      ],
      "type": "VEC4"
    },
    {
      "bufferView": 0,
      "byteOffset": 5235480,
      "componentType": 5125,
      "count": 180,
      "type": "SCALAR"
    },
    {
      "bufferView": 1,
      "byteOffset": 17569296,
      "componentType": 5126,
      "count": 18400,
      "max": [
        144.5,
        137.5,
        126.5
      ],
      "min": [
        3.5,
        2.5,
        0.5
      ],
      "type": "VEC3"
    },
    {
      "bufferView": 1,
      "byteOffset": 17790096,
      "componentType": 5126,
      "count": 18400,
      "max": [
        1.0,
        1.0,
        1.0
      ],
      "min": [
        -1.0,
        -1.0,
        -1.0
      ],
      "type": "VEC3"
    },
    {
      "bufferView": 2,
      "byteOffset": 11712864,
      "componentType": 5126,
      "count": 18400,
      "max": [
        0.3843137323856354,
        0.04313725605607033,
        0.0313725508749485,
        1.0
      ],
      "min": [
        0.3843137323856354,
        0.04313725605607033,
        0.0313725508749485,
        1.0
      ],
      "type": "VEC4"
    },
    {
      "bufferView": 0,
      "byteOffset": 5236200,
      "componentType": 5125,
      "count": 29982,
      "type": "SCALAR"
    },
    {
      "bufferView": 1,
      "byteOffset": 18010896,
      "componentType": 5126,
      "count": 6479,
      "max": [
        145.5,
        136.5,
        147.5
      ],
      "min": [
        5.5,
        -0.5,
        7.5
      ],
      "type": "VEC3"
    },
    {
      "bufferView": 1,
      "byteOffset": 18088644,
      "componentType": 5126,
      "count": 6479,
      "max": [
        1.0,
        1.0,
        1.0
      ],
      "min": [
        -1.0,
        -1.0,
        -1.0
      ],
      "type": "VEC3"
    },
    {
      "bufferView": 2,
      "byteOffset": 12007264,
      "componentType": 5126,
      "count": 6479,
      "max": [
        0.5137255191802979,
        0.4941176474094391,
        0.48235294222831726,
        1.0
      ],
      "min": [
        0.45490196347236633,
        0.2549019753932953,
        0.239215686917305,
        1.0
      ],
      "type": "VEC4"
    },
    {
      "bufferView": 0,
      "byteOffset": 5356128,
      "componentType": 5125,
      "count": 10356,
      "type": "SCALAR"
    },
    {
      "bufferView": 1,
      "byteOffset": 18166392,
      "componentType": 5126,
      "count": 20693,
      "max": [
        144.5,
        137.5,
        126.5
      ],
      "min": [
        5.5,
        -0.5,
        4.5
      ],
      "type": "VEC3"
    },
    {
      "bufferView": 1,
      "byteOffset": 18414708,
      "componentType": 5126,
      "count": 20693,
      "max": [
        1.0,
        1.0,
        1.0
      ],
      "min": [
        -1.0,
        -1.0,
        -1.0
      ],
      "type": "VEC3"
    },
    {
      "bufferView": 2,
      "byteOffset": 12110928,
      "componentType": 5126,
      "count": 20693,
      "max": [
        0.3607843220233917,
        0.08627451211214066,
        0.062745101749897,
        1.0
      ],
      "min": [
        0.3607843220233917,
        0.08627451211214066,
        0.062745101749897,
        1.0
      ],
      "type": "VEC4"
    },
    {
      "bufferView": 0,
      "byteOffset": 5397552,
      "componentType": 5125,
      "count": 34296,
      "type": "SCALAR"
    },
    {
      "bufferView": 1,
      "byteOffset": 18663024,
      "componentType": 5126,
      "count": 2661,
      "max": [
        145.5,
        136.5,
        147.5
      ],
      "min": [
        2.5,
        -0.5,
        9.5
      ],
      "type": "VEC3"
    },
    {
      "bufferView": 1,
      "byteOffset": 18694956,
      "componentType": 5126,
      "count": 2661,
      "max": [
        1.0,
        1.0,
        1.0
      ],
      "min": [
        -1.0,
        -1.0,
        -1.0
      ],
      "type": "VEC3"
    },
    {
      "bufferView": 2,
      "byteOffset": 12442016,
      "componentType": 5126,
      "count": 2661,
      "max": [
        0.4431372582912445,
        0.3333333432674408,
        0.29411765933036804,
        1.0
      ],
      "min": [
        0.4431372582912445,
        0.3333333432674408,
        0.29411765933036804,
        1.0
      ],
      "type": "VEC4"
    },
    {
      "bufferView": 0,
      "byteOffset": 5534736,
      "componentType": 5125,
      "count": 4320,
      "type": "SCALAR"
    },
    {
      "bufferView": 1,
      "byteOffset": 18726888,
      "componentType": 5126,
      "count": 6877,
      "max": [
        149.5,
        136.5,
        149.5
      ],
      "min": [
        -0.5,
        -0.5,
        8.5
      ],
      "type": "VEC3"
    },
    {
      "bufferView": 1,
      "byteOffset": 18809412,
      "componentType": 5126,
      "count": 6877,
      "max": [
        1.0,
        1.0,
        1.0
      ],
      "min": [
        -1.0,
        -1.0,
        -1.0
      ],
      "type": "VEC3"
    },
    {
      "bufferView": 2,
      "byteOffset": 12484592,
      "componentType": 5126,
      "count": 6877,
      "max": [
        0.4627451002597809,
        0.4470588266849518,
        0.43529412150382996,
        1.0
      ],
      "min": [
        0.4000000059604645,
        0.23137255012989044,
        0.1725490242242813,
        1.0
      ],
      "type": "VEC4"
    },
    {
      "bufferView": 0,
      "byteOffset": 5552016,
      "componentType": 5125,
      "count": 11424,
      "type": "SCALAR"
    },
    {
      "bufferView": 1,
      "byteOffset": 18891936,
      "componentType": 5126,
      "count": 9170,
      "max": [
        144.5,
        137.5,
        124.5
      ],
      "min": [
        4.5,
        -0.5,
        8.5
      ],
      "type": "VEC3"
    },
    {
      "bufferView": 1,
      "byteOffset": 19001976,
      "componentType": 5126,
      "count": 9170,
      "max": [
        1.0,
        1.0,
        1.0
      ],
      "min": [
        -1.0,
        -1.0,
        -1.0
      ],
      "type": "VEC3"
    },
    {
      "bufferView": 2,
      "byteOffset": 12594624,
      "componentType": 5126,
      "count": 9170,
      "max": [
        0.3764705955982208,
        0.16862745583057404,
        0.12941177189350128,
        1.0
      ],
      "min": [
        0.3764705955982208,
        0.16862745583057404,
        0.12941177189350128,
        1.0
      ],
      "type": "VEC4"
    },
    {
      "bufferView": 0,
      "byteOffset": 5597712,
      "componentType": 5125,
      "count": 15228,
      "type": "SCALAR"
    },
    {
      "bufferView": 1,
      "byteOffset": 19112016,
      "componentType": 5126,
      "count": 2222,
      "max": [
        146.5,
        131.5,
        148.5
      ],
      "min": [
        0.5,
        2.5,
        9.5
      ],
      "type": "VEC3"
    },
    {
      "bufferView": 1,
      "byteOffset": 19138680,
      "componentType": 5126,
      "count": 2222,
      "max": [
        1.0,
        1.0,
        1.0
      ],
      "min": [
        -1.0,
        -1.0,
        -1.0
      ],
      "type": "VEC3"
    },
    {
      "bufferView": 2,
      "byteOffset": 12741344,
      "componentType": 5126,
      "count": 2222,
      "max": [
        1.0,
        0.9176470637321472,
        0.9137254953384399,
        1.0
      ],
      "min": [
        0.38823530077934265,
        0.3333333432674408,
        0.3333333432674408,
        1.0
      ],
      "type": "VEC4"
    },
    {
      "bufferView": 0,
      "byteOffset": 5658624,
      "componentType": 5125,
      "count": 3378,
      "type": "SCALAR"
    },
    {
      "bufferView": 1,
      "byteOffset": 19165344,
      "componentType": 5126,
      "count": 9625,
      "max": [
        149.5,
        137.5,
        152.5
      ],
      "min": [
        -0.5,
        -0.5,
        34.5
      ],
      "type": "VEC3"
    },
    {
      "bufferView": 1,
      "byteOffset": 19280844,
      "componentType": 5126,
      "count": 9625,
      "max": [
        1.0,
        1.0,
        1.0
      ],
      "min": [
        -1.0,
        -1.0,
        -1.0
      ],
      "type": "VEC3"
    },
    {
      "bufferView": 2,
      "byteOffset": 12776896,
      "componentType": 5126,
      "count": 9625,
      "max": [
        1.0,
        1.0,
        0.5254902243614197,
        1.0
      ],
      "min": [
        0.4470588266849518,
        0.3019607961177826,
        0.2666666805744171,
        1.0
      ],
      "type": "VEC4"
    },
    {
      "bufferView": 0,
      "byteOffset": 5672136,
      "componentType": 5125,
      "count": 14832,
      "type": "SCALAR"
    },
    {
      "bufferView": 1,
      "byteOffset": 19396344,
      "componentType": 5126,
      "count": 9553,
      "max": [
        145.5,
        137.5,
        153.5
      ],
      "min": [
        0.5,
        1.5,
        25.5
      ],
      "type": "VEC3"
    },
    {
      "bufferView": 1,
      "byteOffset": 19510980,
      "componentType": 5126,
      "count": 9553,
      "max": [
        1.0,
        1.0,
        1.0
      ],
      "min": [
        -1.0,
        -1.0,
        -1.0
      ],
      "type": "VEC3"
    },
    {
      "bufferView": 2,
      "byteOffset": 12930896,
      "componentType": 5126,
      "count": 9553,
      "max": [
        0.9725490212440491,
        0.6980392336845398,
        0.49803921580314636,
        1.0
      ],
      "min": [
        0.7450980544090271,
        0.054901961237192154,
        0.0235294122248888,
        1.0
      ],
      "type": "VEC4"
    },
    {
      "bufferView": 0,
      "byteOffset": 5731464,
      "componentType": 5125,
      "count": 14988,
      "type": "SCALAR"
    },
    {
      "bufferView": 1,
      "byteOffset": 19625616,
      "componentType": 5126,
      "count": 9316,
      "max": [
        148.5,
        136.5,
        151.5
      ],
      "min": [
        -0.5,
        -0.5,
        29.5
      ],
      "type": "VEC3"
    },
    {
      "bufferView": 1,
      "byteOffset": 19737408,
      "componentType": 5126,
      "count": 9316,
      "max": [
        1.0,
        1.0,
        1.0
      ],
      "min": [
        -1.0,
        -1.0,
        -1.0
      ],
      "type": "VEC3"
    },
    {
      "bufferView": 2,
      "byteOffset": 13083744,
      "componentType": 5126,
      "count": 9316,
      "max": [
        1.0,
        0.9725490212440491,
        0.6392157077789307,
        1.0
      ],
      "min": [
        0.6705882549285889,
        0.35686275362968445,
        0.30980393290519714,
        1.0
      ],
      "type": "VEC4"
    },
    {
      "bufferView": 0,
      "byteOffset": 5791416,
      "componentType": 5125,
      "count": 14784,
      "type": "SCALAR"
    },
    {
      "bufferView": 1,
      "byteOffset": 19849200,
      "componentType": 5126,
      "count": 7540,
      "max": [
        142.5,
        136.5,
        150.5
      ],
      "min": [
        3.5,
        -0.5,
        61.5
      ],
      "type": "VEC3"
    },
    {
      "bufferView": 1,
      "byteOffset": 19939680,
      "componentType": 5126,
      "count": 7540,
      "max": [
        1.0,
        1.0,
        1.0
      ],
      "min": [
        -1.0,
        -1.0,
        -1.0
      ],
      "type": "VEC3"
    },
    {
      "bufferView": 2,
      "byteOffset": 13232800,
      "componentType": 5126,
      "count": 7540,
      "max": [
        1.0,
        0.5568627715110779,
        0.3764705955982208,
        1.0
      ],
      "min": [
        0.9372549057006836,
        0.3450980484485626,
        0.2235294133424759,
        1.0
      ],
      "type": "VEC4"
    },
    {
      "bufferView": 0,
      "byteOffset": 5850552,
      "componentType": 5125,
      "count": 12612,
      "type": "SCALAR"
    },
    {
      "bufferView": 1,
      "byteOffset": 20030160,
      "componentType": 5126,
      "count": 11648,
      "max": [
        142.5,
        137.5,
        138.5
      ],
      "min": [
        6.5,
        -0.5,
        60.5
      ],
      "type": "VEC3"
    },
    {
      "bufferView": 1,
      "byteOffset": 20169936,
      "componentType": 5126,
      "count": 11648,
      "max": [
        1.0,
        1.0,
        1.0
      ],
      "min": [
        -1.0,
        -1.0,
        -1.0
      ],
      "type": "VEC3"
    },
    {
      "bufferView": 2,
      "byteOffset": 13353440,
      "componentType": 5126,
      "count": 11648,
      "max": [
        0.9921568632125854,
        0.3843137323856354,
        0.21960784494876862,
        1.0
      ],
      "min": [
        0.9921568632125854,
        0.3843137323856354,
        0.21960784494876862,
        1.0
      ],
      "type": "VEC4"
    },
    {
      "bufferView": 0,
      "byteOffset": 5901000,
      "componentType": 5125,
      "count": 20052,
      "type": "SCALAR"
    },
    {
      "bufferView": 1,
      "byteOffset": 20309712,
      "componentType": 5126,
      "count": 5550,
      "max": [
        144.5,
        136.5,
        137.5
      ],
      "min": [
        4.5,
        -0.5,
        58.5
      ],
      "type": "VEC3"
    },
    {
      "bufferView": 1,
      "byteOffset": 20376312,
      "componentType": 5126,
      "count": 5550,
      "max": [
        1.0,
        1.0,
        1.0
      ],
      "min": [
        -1.0,
        -1.0,
        -1.0
      ],
      "type": "VEC3"
    },
    {
      "bufferView": 2,
      "byteOffset": 13539808,
      "componentType": 5126,
      "count": 5550,
      "max": [
        0.9686274528503418,
        0.3450980484485626,
        0.18431372940540314,
        1.0
      ],
      "min": [
        0.9686274528503418,
        0.3450980484485626,
        0.18431372940540314,
        1.0
      ],
      "type": "VEC4"
    },
    {
      "bufferView": 0,
      "byteOffset": 5981208,
      "componentType": 5125,
      "count": 8946,
      "type": "SCALAR"
    }
  ],
  "asset": {
    "extras": {
      "author": "Mortecha (https://sketchfab.com/mortecha)",
      "license": "CC-BY-4.0 (http://creativecommons.org/licenses/by/4.0/)",
      "source": "https://sketchfab.com/3d-models/voxel-daggerfall-test-3-016c37360913492c8a9140c93af3e3cb",
      "title": "Voxel Daggerfall - Test 3"
    },
    "generator": "Sketchfab-16.21.0",
    "version": "2.0"
  },
  "bufferViews": [
    {
      "buffer": 0,
      "byteLength": 6016992,
      "name": "floatBufferViews",
      "target": 34963
    },
    {
      "buffer": 0,
      "byteLength": 20442912,
      "byteOffset": 6016992,
      "byteStride": 12,
      "name": "floatBufferViews",
      "target": 34962
    },
    {
      "buffer": 0,
      "byteLength": 13628608,
      "byteOffset": 26459904,
      "byteStride": 16,
      "name": "floatBufferViews",
      "target": 34962
    }
  ],
  "buffers": [
    {
      "byteLength": 40088512,
      "uri": "scene1.bin"
    }
  ],
  "extensionsUsed": [
    "KHR_materials_unlit"
  ],
  "materials": [
    {
      "doubleSided": true,
      "extensions": {
        "KHR_materials_unlit": {}
      },
      "name": "Scene_-_Root",
      "pbrMetallicRoughness": {
        "metallicFactor": 0.0
      }
    }
  ],
  "meshes": [
    {
      "name": "Object_0",
      "primitives": [
        {
          "attributes": {
            "COLOR_0": 2,
            "NORMAL": 1,
            "POSITION": 0
          },
          "indices": 3,
          "material": 0,
          "mode": 4
        }
      ]
    },
    {
      "name": "Object_1",
      "primitives": [
        {
          "attributes": {
            "COLOR_0": 6,
            "NORMAL": 5,
            "POSITION": 4
          },
          "indices": 7,
          "material": 0,
          "mode": 4
        }
      ]
    },
    {
      "name": "Object_2",
      "primitives": [
        {
          "attributes": {
            "COLOR_0": 10,
            "NORMAL": 9,
            "POSITION": 8
          },
          "indices": 11,
          "material": 0,
          "mode": 4
        }
      ]
    },
    {
      "name": "Object_3",
      "primitives": [
        {
          "attributes": {
            "COLOR_0": 14,
            "NORMAL": 13,
            "POSITION": 12
          },
          "indices": 15,
          "material": 0,
          "mode": 4
        }
      ]
    },
    {
      "name": "Object_4",
      "primitives": [
        {
          "attributes": {
            "COLOR_0": 18,
            "NORMAL": 17,
            "POSITION": 16
          },
          "indices": 19,
          "material": 0,
          "mode": 4
        }
      ]
    },
    {
      "name": "Object_5",
      "primitives": [
        {
          "attributes": {
            "COLOR_0": 22,
            "NORMAL": 21,
            "POSITION": 20
          },
          "indices": 23,
          "material": 0,
          "mode": 4
        }
      ]
    },
    {
      "name": "Object_6",
      "primitives": [
        {
          "attributes": {
            "COLOR_0": 26,
            "NORMAL": 25,
            "POSITION": 24
          },
          "indices": 27,
          "material": 0,
          "mode": 4
        }
      ]
    },
    {
      "name": "Object_7",
      "primitives": [
        {
          "attributes": {
            "COLOR_0": 30,
            "NORMAL": 29,
            "POSITION": 28
          },
          "indices": 31,
          "material": 0,
          "mode": 4
        }
      ]
    },
    {
      "name": "Object_8",
      "primitives": [
        {
          "attributes": {
            "COLOR_0": 34,
            "NORMAL": 33,
            "POSITION": 32
          },
          "indices": 35,
          "material": 0,
          "mode": 4
        }
      ]
    },
    {
      "name": "Object_9",
      "primitives": [
        {
          "attributes": {
            "COLOR_0": 38,
            "NORMAL": 37,
            "POSITION": 36
          },
          "indices": 39,
          "material": 0,
          "mode": 4
        }
      ]
    },
    {
      "name": "Object_10",
      "primitives": [
        {
          "attributes": {
            "COLOR_0": 42,
            "NORMAL": 41,
            "POSITION": 40
          },
          "indices": 43,
          "material": 0,
          "mode": 4
        }
      ]
    },
    {
      "name": "Object_11",
      "primitives": [
        {
          "attributes": {
            "COLOR_0": 46,
            "NORMAL": 45,
            "POSITION": 44
          },
          "indices": 47,
          "material": 0,
          "mode": 4
        }
      ]
    },
    {
      "name": "Object_12",
      "primitives": [
        {
          "attributes": {
            "COLOR_0": 50,
            "NORMAL": 49,
            "POSITION": 48
          },
          "indices": 51,
          "material": 0,
          "mode": 4
        }
      ]
    },
    {
      "name": "Object_13",
      "primitives": [
        {
          "attributes": {
            "COLOR_0": 54,
            "NORMAL": 53,
            "POSITION": 52
          },
          "indices": 55,
          "material": 0,
          "mode": 4
        }
      ]
    },
    {
      "name": "Object_14",
      "primitives": [
        {
          "attributes": {
            "COLOR_0": 58,
            "NORMAL": 57,
            "POSITION": 56
          },
          "indices": 59,
          "material": 0,
          "mode": 4
        }
      ]
    },
    {
      "name": "Object_15",
      "primitives": [
        {
          "attributes": {
            "COLOR_0": 62,
            "NORMAL": 61,
            "POSITION": 60
          },
          "indices": 63,
          "material": 0,
          "mode": 4
        }
      ]
    },
    {
      "name": "Object_16",
      "primitives": [
        {
          "attributes": {
            "COLOR_0": 66,
            "NORMAL": 65,
            "POSITION": 64
          },
          "indices": 67,
          "material": 0,
          "mode": 4
        }
      ]
    },
    {
      "name": "Object_17",
      "primitives": [
        {
          "attributes": {
            "COLOR_0": 70,
            "NORMAL": 69,
            "POSITION": 68
          },
          "indices": 71,
          "material": 0,
          "mode": 4
        }
      ]
    },
    {
      "name": "Object_18",
      "primitives": [
        {
          "attributes": {
            "COLOR_0": 74,
            "NORMAL": 73,
            "POSITION": 72
          },
          "indices": 75,
          "material": 0,
          "mode": 4
        }
      ]
    },
    {
      "name": "Object_19",
      "primitives": [
        {
          "attributes": {
            "COLOR_0": 78,
            "NORMAL": 77,
            "POSITION": 76
          },
          "indices": 79,
          "material": 0,
          "mode": 4
        }
      ]
    },
    {
      "name": "Object_20",
      "primitives": [
        {
          "attributes": {
            "COLOR_0": 82,
            "NORMAL": 81,
            "POSITION": 80
          },
          "indices": 83,
          "material": 0,
          "mode": 4
        }
      ]
    },
    {
      "name": "Object_21",
      "primitives": [
        {
          "attributes": {
            "COLOR_0": 86,
            "NORMAL": 85,
            "POSITION": 84
          },
          "indices": 87,
          "material": 0,
          "mode": 4
        }
      ]
    },
    {
      "name": "Object_22",
      "primitives": [
        {
          "attributes": {
            "COLOR_0": 90,
            "NORMAL": 89,
            "POSITION": 88
          },
          "indices": 91,
          "material": 0,
          "mode": 4
        }
      ]
    },
    {
      "name": "Object_23",
      "primitives": [
        {
          "attributes": {
            "COLOR_0": 94,
            "NORMAL": 93,
            "POSITION": 92
          },
          "indices": 95,
          "material": 0,
          "mode": 4
        }
      ]
    },
    {
      "name": "Object_24",
      "primitives": [
        {
          "attributes": {
            "COLOR_0": 98,
            "NORMAL": 97,
            "POSITION": 96
          },
          "indices": 99,
          "material": 0,
          "mode": 4
        }
      ]
    },
    {
      "name": "Object_25",
      "primitives": [
        {
          "attributes": {
            "COLOR_0": 102,
            "NORMAL": 101,
            "POSITION": 100
          },
          "indices": 103,
          "material": 0,
          "mode": 4
        }
      ]
    },
    {
      "name": "Object_26",
      "primitives": [
        {
          "attributes": {
            "COLOR_0": 106,
            "NORMAL": 105,
            "POSITION": 104
          },
          "indices": 107,
          "material": 0,
          "mode": 4
        }
      ]
    },
    {
      "name": "Object_27",
      "primitives": [
        {
          "attributes": {
            "COLOR_0": 110,
            "NORMAL": 109,
            "POSITION": 108
          },
          "indices": 111,
          "material": 0,
          "mode": 4
        }
      ]
    },
    {
      "name": "Object_28",
      "primitives": [
        {
          "attributes": {
            "COLOR_0": 114,
            "NORMAL": 113,
            "POSITION": 112
          },
          "indices": 115,
          "material": 0,
          "mode": 4
        }
      ]
    },
    {
      "name": "Object_29",
      "primitives": [
        {
          "attributes": {
            "COLOR_0": 118,
            "NORMAL": 117,
            "POSITION": 116
          },
          "indices": 119,
          "material": 0,
          "mode": 4
        }
      ]
    },
    {
      "name": "Object_30",
      "primitives": [
        {
          "attributes": {
            "COLOR_0": 122,
            "NORMAL": 121,
            "POSITION": 120
          },
          "indices": 123,
          "material": 0,
          "mode": 4
        }
      ]
    },
    {
      "name": "Object_31",
      "primitives": [
        {
          "attributes": {
            "COLOR_0": 126,
            "NORMAL": 125,
            "POSITION": 124
          },
          "indices": 127,
          "material": 0,
          "mode": 4
        }
      ]
    },
    {
      "name": "Object_32",
      "primitives": [
        {
          "attributes": {
            "COLOR_0": 130,
            "NORMAL": 129,
            "POSITION": 128
          },
          "indices": 131,
          "material": 0,
          "mode": 4
        }
      ]
    },
    {
      "name": "Object_33",
      "primitives": [
        {
          "attributes": {
            "COLOR_0": 134,
            "NORMAL": 133,
            "POSITION": 132
          },
          "indices": 135,
          "material": 0,
          "mode": 4
        }
      ]
    },
    {
      "name": "Object_34",
      "primitives": [
        {
          "attributes": {
            "COLOR_0": 138,
            "NORMAL": 137,
            "POSITION": 136
          },
          "indices": 139,
          "material": 0,
          "mode": 4
        }
      ]
    },
    {
      "name": "Object_35",
      "primitives": [
        {
          "attributes": {
            "COLOR_0": 142,
            "NORMAL": 141,
            "POSITION": 140
          },
          "indices": 143,
          "material": 0,
          "mode": 4
        }
      ]
    },
    {
      "name": "Object_36",
      "primitives": [
        {
          "attributes": {
            "COLOR_0": 146,
            "NORMAL": 145,
            "POSITION": 144
          },
          "indices": 147,
          "material": 0,
          "mode": 4
        }
      ]
    },
    {
      "name": "Object_37",
      "primitives": [
        {
          "attributes": {
            "COLOR_0": 150,
            "NORMAL": 149,
            "POSITION": 148
          },
          "indices": 151,
          "material": 0,
          "mode": 4
        }
      ]
    },
    {
      "name": "Object_38",
      "primitives": [
        {
          "attributes": {
            "COLOR_0": 154,
            "NORMAL": 153,
            "POSITION": 152
          },
          "indices": 155,
          "material": 0,
          "mode": 4
        }
      ]
    },
    {
      "name": "Object_39",
      "primitives": [
        {
          "attributes": {
            "COLOR_0": 158,
            "NORMAL": 157,
            "POSITION": 156
          },
          "indices": 159,
          "material": 0,
          "mode": 4
        }
      ]
    },
    {
      "name": "Object_40",
      "primitives": [
        {
          "attributes": {
            "COLOR_0": 162,
            "NORMAL": 161,
            "POSITION": 160
          },
          "indices": 163,
          "material": 0,
          "mode": 4
        }
      ]
    },
    {
      "name": "Object_41",
      "primitives": [
        {
          "attributes": {
            "COLOR_0": 166,
            "NORMAL": 165,
            "POSITION": 164
          },
          "indices": 167,
          "material": 0,
          "mode": 4
        }
      ]
    },
    {
      "name": "Object_42",
      "primitives": [
        {
          "attributes": {
            "COLOR_0": 170,
            "NORMAL": 169,
            "POSITION": 168
          },
          "indices": 171,
          "material": 0,
          "mode": 4
        }
      ]
    },
    {
      "name": "Object_43",
      "primitives": [
        {
          "attributes": {
            "COLOR_0": 174,
            "NORMAL": 173,
            "POSITION": 172
          },
          "indices": 175,
          "material": 0,
          "mode": 4
        }
      ]
    },
    {
      "name": "Object_44",
      "primitives": [
        {
          "attributes": {
            "COLOR_0": 178,
            "NORMAL": 177,
            "POSITION": 176
          },
          "indices": 179,
          "material": 0,
          "mode": 4
        }
      ]
    },
    {
      "name": "Object_45",
      "primitives": [
        {
          "attributes": {
            "COLOR_0": 182,
            "NORMAL": 181,
            "POSITION": 180
          },
          "indices": 183,
          "material": 0,
          "mode": 4
        }
      ]
    },
    {
      "name": "Object_46",
      "primitives": [
        {
          "attributes": {
            "COLOR_0": 186,
            "NORMAL": 185,
            "POSITION": 184
          },
          "indices": 187,
          "material": 0,
          "mode": 4
        }
      ]
    },
    {
      "name": "Object_47",
      "primitives": [
        {
          "attributes": {
            "COLOR_0": 190,
            "NORMAL": 189,
            "POSITION": 188
          },
          "indices": 191,
          "material": 0,
          "mode": 4
        }
      ]
    },
    {
      "name": "Object_48",
      "primitives": [
        {
          "attributes": {
            "COLOR_0": 194,
            "NORMAL": 193,
            "POSITION": 192
          },
          "indices": 195,
          "material": 0,
          "mode": 4
        }
      ]
    },
    {
      "name": "Object_49",
      "primitives": [
        {
          "attributes": {
            "COLOR_0": 198,
            "NORMAL": 197,
            "POSITION": 196
          },
          "indices": 199,
          "material": 0,
          "mode": 4
        }
      ]
    },
    {
      "name": "Object_50",
      "primitives": [
        {
          "attributes": {
            "COLOR_0": 202,
            "NORMAL": 201,
            "POSITION": 200
          },
          "indices": 203,
          "material": 0,
          "mode": 4
        }
      ]
    },
    {
      "name": "Object_51",
      "primitives": [
        {
          "attributes": {
            "COLOR_0": 206,
            "NORMAL": 205,
            "POSITION": 204
          },
          "indices": 207,
          "material": 0,
          "mode": 4
        }
      ]
    },
    {
      "name": "Object_52",
      "primitives": [
        {
          "attributes": {
            "COLOR_0": 210,
            "NORMAL": 209,
            "POSITION": 208
          },
          "indices": 211,
          "material": 0,
          "mode": 4
        }
      ]
    },
    {
      "name": "Object_53",
      "primitives": [
        {
          "attributes": {
            "COLOR_0": 214,
            "NORMAL": 213,
            "POSITION": 212
          },
          "indices": 215,
          "material": 0,
          "mode": 4
        }
      ]
    },
    {
      "name": "Object_54",
      "primitives": [
        {
          "attributes": {
            "COLOR_0": 218,
            "NORMAL": 217,
            "POSITION": 216
          },
          "indices": 219,
          "material": 0,
          "mode": 4
        }
      ]
    },
    {
      "name": "Object_55",
      "primitives": [
        {
          "attributes": {
            "COLOR_0": 222,
            "NORMAL": 221,
            "POSITION": 220
          },
          "indices": 223,
          "material": 0,
          "mode": 4
        }
      ]
    },
    {
      "name": "Object_56",
      "primitives": [
        {
          "attributes": {
            "COLOR_0": 226,
            "NORMAL": 225,
            "POSITION": 224
          },
          "indices": 227,
          "material": 0,
          "mode": 4
        }
      ]
    },
    {
      "name": "Object_57",
      "primitives": [
        {
          "attributes": {
            "COLOR_0": 230,
            "NORMAL": 229,
            "POSITION": 228
          },
          "indices": 231,
          "material": 0,
          "mode": 4
        }
      ]
    },
    {
      "name": "Object_58",
      "primitives": [
        {
          "attributes": {
            "COLOR_0": 234,
            "NORMAL": 233,
            "POSITION": 232
          },
          "indices": 235,
          "material": 0,
          "mode": 4
        }
      ]
    },
    {
      "name": "Object_59",
      "primitives": [
        {
          "attributes": {
            "COLOR_0": 238,
            "NORMAL": 237,
            "POSITION": 236
          },
          "indices": 239,
          "material": 0,
          "mode": 4
        }
      ]
    },
    {
      "name": "Object_60",
      "primitives": [
        {
          "attributes": {
            "COLOR_0": 242,
            "NORMAL": 241,
            "POSITION": 240
          },
          "indices": 243,
          "material": 0,
          "mode": 4
        }
      ]
    },
    {
      "name": "Object_61",
      "primitives": [
        {
          "attributes": {
            "COLOR_0": 246,
            "NORMAL": 245,
            "POSITION": 244
          },
          "indices": 247,
          "material": 0,
          "mode": 4
        }
      ]
    },
    {
      "name": "Object_62",
      "primitives": [
        {
          "attributes": {
            "COLOR_0": 250,
            "NORMAL": 249,
            "POSITION": 248
          },
          "indices": 251,
          "material": 0,
          "mode": 4
        }
      ]
    },
    {
      "name": "Object_63",
      "primitives": [
        {
          "attributes": {
            "COLOR_0": 254,
            "NORMAL": 253,
            "POSITION": 252
          },
          "indices": 255,
          "material": 0,
          "mode": 4
        }
      ]
    },
    {
      "name": "Object_64",
      "primitives": [
        {
          "attributes": {
            "COLOR_0": 258,
            "NORMAL": 257,
            "POSITION": 256
          },
          "indices": 259,
          "material": 0,
          "mode": 4
        }
      ]
    },
    {
      "name": "Object_65",
      "primitives": [
        {
          "attributes": {
            "COLOR_0": 262,
            "NORMAL": 261,
            "POSITION": 260
          },
          "indices": 263,
          "material": 0,
          "mode": 4
        }
      ]
    },
    {
      "name": "Object_66",
      "primitives": [
        {
          "attributes": {
            "COLOR_0": 266,
            "NORMAL": 265,
            "POSITION": 264
          },
          "indices": 267,
          "material": 0,
          "mode": 4
        }
      ]
    },
    {
      "name": "Object_67",
      "primitives": [
        {
          "attributes": {
            "COLOR_0": 270,
            "NORMAL": 269,
            "POSITION": 268
          },
          "indices": 271,
          "material": 0,
          "mode": 4
        }
      ]
    },
    {
      "name": "Object_68",
      "primitives": [
        {
          "attributes": {
            "COLOR_0": 274,
            "NORMAL": 273,
            "POSITION": 272
          },
          "indices": 275,
          "material": 0,
          "mode": 4
        }
      ]
    }
  ],
  "nodes": [
    {
      "children": [
        1
      ],
      "matrix": [
        1.0,
        0.0,
        0.0,
        0.0,
        0.0,
        2.220446049250313e-16,
        -1.0,
        0.0,
        0.0,
        1.0,
        2.220446049250313e-16,
        0.0,
        0.0,
        0.0,
        0.0,
        1.0
      ],
      "name": "Sketchfab_model"
    },
    {
      "children": [
        2
      ],
      "name": "VoxRoot"
    },
    {
      "children": [
        3
      ],
      "name": "grp"
    },
    {
      "children": [
        4
      ],
      "name": "VoxGroup"
    },
    {
      "children": [
        5,
        6,
        7,
        8,
        9,
        10,
        11,
        12,
        13,
        14,
        15,
        16,
        17,
        18,
        19,
        20,
        21,
        22,
        23,
        24,
        25,
        26,
        27,
        28,
        29,
        30,
        31,
        32,
        33,
        34,
        35,
        36,
        37,
        38,
        39,
        40,
        41,
        42,
        43,
        44,
        45,
        46,
        47,
        48,
        49,
        50,
        51,
        52,
        53,
        54,
        55,
        56,
        57,
        58,
        59,
        60,
        61,
        62,
        63,
        64,
        65,
        66,
        67,
        68,
        69,
        70,
        71,
        72,
        73
      ],
      "name": "shape_0"
    },
    {
      "mesh": 0,
      "name": "Object_5"
    },
    {
      "mesh": 1,
      "name": "Object_6"
    },
    {
      "mesh": 2,
      "name": "Object_7"
    },
    {
      "mesh": 3,
      "name": "Object_8"
    },
    {
      "mesh": 4,
      "name": "Object_9"
    },
    {
      "mesh": 5,
      "name": "Object_10"
    },
    {
      "mesh": 6,
      "name": "Object_11"
    },
    {
      "mesh": 7,
      "name": "Object_12"
    },
    {
      "mesh": 8,
      "name": "Object_13"
    },
    {
      "mesh": 9,
      "name": "Object_14"
    },
    {
      "mesh": 10,
      "name": "Object_15"
    },
    {
      "mesh": 11,
      "name": "Object_16"
    },
    {
      "mesh": 12,
      "name": "Object_17"
    },
    {
      "mesh": 13,
      "name": "Object_18"
    },
    {
      "mesh": 14,
      "name": "Object_19"
    },
    {
      "mesh": 15,
      "name": "Object_20"
    },
    {
      "mesh": 16,
      "name": "Object_21"
    },
    {
      "mesh": 17,
      "name": "Object_22"
    },
    {
      "mesh": 18,
      "name": "Object_23"
    },
    {
      "mesh": 19,
      "name": "Object_24"
    },
    {
      "mesh": 20,
      "name": "Object_25"
    },
    {
      "mesh": 21,
      "name": "Object_26"
    },
    {
      "mesh": 22,
      "name": "Object_27"
    },
    {
      "mesh": 23,
      "name": "Object_28"
    },
    {
      "mesh": 24,
      "name": "Object_29"
    },
    {
      "mesh": 25,
      "name": "Object_30"
    },
    {
      "mesh": 26,
      "name": "Object_31"
    },
    {
      "mesh": 27,
      "name": "Object_32"
    },
    {
      "mesh": 28,
      "name": "Object_33"
    },
    {
      "mesh": 29,
      "name": "Object_34"
    },
    {
      "mesh": 30,
      "name": "Object_35"
    },
    {
      "mesh": 31,
      "name": "Object_36"
    },
    {
      "mesh": 32,
      "name": "Object_37"
    },
    {
      "mesh": 33,
      "name": "Object_38"
    },
    {
      "mesh": 34,
      "name": "Object_39"
    },
    {
      "mesh": 35,
      "name": "Object_40"
    },
    {
      "mesh": 36,
      "name": "Object_41"
    },
    {
      "mesh": 37,
      "name": "Object_42"
    },
    {
      "mesh": 38,
      "name": "Object_43"
    },
    {
      "mesh": 39,
      "name": "Object_44"
    },
    {
      "mesh": 40,
      "name": "Object_45"
    },
    {
      "mesh": 41,
      "name": "Object_46"
    },
    {
      "mesh": 42,
      "name": "Object_47"
    },
    {
      "mesh": 43,
      "name": "Object_48"
    },
    {
      "mesh": 44,
      "name": "Object_49"
    },
    {
      "mesh": 45,
      "name": "Object_50"
    },
    {
      "mesh": 46,
      "name": "Object_51"
    },
    {
      "mesh": 47,
      "name": "Object_52"
    },
    {
      "mesh": 48,
      "name": "Object_53"
    },
    {
      "mesh": 49,
      "name": "Object_54"
    },
    {
      "mesh": 50,
      "name": "Object_55"
    },
    {
      "mesh": 51,
      "name": "Object_56"
    },
    {
      "mesh": 52,
      "name": "Object_57"
    },
    {
      "mesh": 53,
      "name": "Object_58"
    },
    {
      "mesh": 54,
      "name": "Object_59"
    },
    {
      "mesh": 55,
      "name": "Object_60"
    },
    {
      "mesh": 56,
      "name": "Object_61"
    },
    {
      "mesh": 57,
      "name": "Object_62"
    },
    {
      "mesh": 58,
      "name": "Object_63"
    },
    {
      "mesh": 59,
      "name": "Object_64"
    },
    {
      "mesh": 60,
      "name": "Object_65"
    },
    {
      "mesh": 61,
      "name": "Object_66"
    },
    {
      "mesh": 62,
      "name": "Object_67"
    },
    {
      "mesh": 63,
      "name": "Object_68"
    },
    {
      "mesh": 64,
      "name": "Object_69"
    },
    {
      "mesh": 65,
      "name": "Object_70"
    },
    {
      "mesh": 66,
      "name": "Object_71"
    },
    {
      "mesh": 67,
      "name": "Object_72"
    },
    {
      "mesh": 68,
      "name": "Object_73"
    }
  ],
  "scene": 0,
  "scenes": [
    {
      "name": "Sketchfab_Scene",
      "nodes": [
        0
      ]
    }
  ]
}
